<svg width="300" height="100" viewBox="0 0 300 100" fill="none" xmlns="http://www.w3.org/2000/svg">
<path d="M217.821 39.5989H212.552C211.95 39.5989 211.349 39.3441 210.921 38.8752L208.78 36.48C208.138 35.7971 207.109 35.7053 206.385 36.3475C206.344 36.3882 206.304 36.429 206.253 36.48L204.408 38.5389C203.806 39.2218 202.95 39.6091 202.053 39.6091H173.157C172.342 42.0044 171.791 44.4914 171.577 47.0191H198.843C199.311 47.0191 199.78 46.8051 200.127 46.4585L202.655 43.8085C202.95 43.4619 203.419 43.2988 203.847 43.2988H203.929C204.398 43.2988 204.866 43.5129 205.213 43.8594L207.353 46.2547C207.741 46.7236 208.342 46.9784 208.984 46.9784H231.245C231.031 44.4506 230.521 41.9738 229.665 39.5683H217.811V39.5989H217.821ZM188.12 62.5425C188.589 62.5425 189.058 62.3284 189.404 61.9819L191.932 59.3318C192.228 58.9853 192.707 58.8222 193.135 58.8222H193.267C193.736 58.8222 194.205 59.0362 194.551 59.3828L196.692 61.778C197.12 62.2469 197.681 62.5017 198.323 62.5017H228.483C229.634 60.1472 230.45 57.6195 230.97 55.0509H201.992C201.391 55.0509 200.789 54.7961 200.412 54.3272L198.272 51.932C197.976 51.5854 197.497 51.3714 196.987 51.3714C196.519 51.3714 196.05 51.5854 195.744 51.932L193.899 53.9909C193.298 54.6738 192.442 55.0611 191.504 55.0611H172.067C172.535 57.6297 173.392 60.1574 174.503 62.5527H188.12V62.5425ZM209.514 31.506C209.983 31.506 210.452 31.2919 210.798 30.9454L213.326 28.2953C213.622 27.9488 214.101 27.7857 214.529 27.7857H214.661C215.13 27.7857 215.599 27.9997 215.905 28.3463L218.045 30.7415C218.474 31.2104 219.034 31.4652 219.666 31.4652H225.404C215.477 18.2352 196.722 15.5851 183.503 25.5127C181.24 27.2251 179.222 29.1922 177.55 31.4652H209.524L209.514 31.506ZM197.966 69.9423H190.128C189.526 69.9423 188.925 69.6875 188.548 69.2187L186.408 66.8234C185.765 66.1405 184.695 66.0488 184.012 66.6909C183.971 66.7317 183.931 66.7724 183.88 66.8234L182.035 68.9231C181.434 69.606 180.577 69.9933 179.68 69.9933H179.548C190.801 82.0614 209.769 82.7443 221.837 71.4916C222.347 71.0228 222.867 70.5029 223.335 69.9933L197.966 69.9423ZM69.0294 77.5256L62.9546 62.7158H35.7301L29.6553 77.5256H22.5918L49.2965 21.5376L76.0928 77.5256H69.0294ZM38.0438 57.0996H60.6001L49.2557 33.2183L38.0438 57.0996ZM85.8166 77.5256V21.5376H101.401C113.602 21.5376 119.982 27.1028 119.982 37.6317C119.982 47.7734 113.174 53.5934 101.32 53.5934H92.3705V77.4747H85.8166V77.5256ZM92.4112 47.7734H99.8518C109.27 47.7734 113.418 44.6952 113.418 37.6317C113.418 30.3542 109.219 27.3576 99.8926 27.3576H92.4418L92.4112 47.7734ZM143.853 27.4799H124.549V21.4866H169.753V27.4799H150.448V77.5154H143.894V27.4799H143.853ZM240.51 67.2923L246.157 63.4394L246.585 64.3364C250.05 70.6762 253.862 73.1938 259.641 73.1938C266.063 73.1938 270.558 68.7396 270.558 63.3885C270.558 58.3329 268.03 54.9184 257.888 50.7191C246.248 45.8776 242.304 40.9138 242.304 33.7687C242.304 26.0223 248.379 19.9475 258.908 19.9475C266.654 19.9475 271.964 23.2398 274.961 28.6317L270.385 31.8016L269.059 31.455C266.664 27.7449 263.749 25.6044 258.785 25.6044C252.711 25.6044 249.153 29.0292 249.153 33.6057C249.153 37.8866 251.426 40.3226 261.354 44.8583C274.237 50.7191 277.407 55.5198 277.407 63.3069C277.407 71.7872 270.13 78.973 259.774 78.973C251.039 79.0647 245.046 75.7215 240.51 67.2923Z" fill="#000008"/>
</svg>
