<svg width="300" height="100" viewBox="0 0 300 100" fill="none" xmlns="http://www.w3.org/2000/svg">
<path d="M33.4233 37.6416V61.1592C33.4233 62.6008 34.2619 64.0424 35.4679 64.7584L55.8668 76.5172C57.1859 77.2333 58.75 77.2333 60.0691 76.5172L80.4679 64.7584C81.787 64.0424 82.5125 62.6008 82.5125 61.1592V37.6416C82.5125 36.2 81.674 34.7584 80.4679 34.0424L60.0596 22.2836C58.7405 21.5675 57.1765 21.5675 55.8574 22.2836L35.4585 34.0424C34.1394 34.7584 33.4233 36.2 33.4233 37.6416Z" fill="#213147"/>
<path d="M67.258 40.5248C67.5032 40.0442 68.0966 40.0442 68.2192 40.5248L78.2915 68.2446L72.5344 71.6083L64.3749 49.1648C64.2525 48.9293 64.2525 48.6843 64.3749 48.4488L67.258 40.5248Z" fill="#12AAFF"/>
<path d="M59.579 61.8847L62.4621 53.9607C62.6977 53.4802 63.3008 53.4802 63.4139 53.9607L70.3767 72.918L64.6199 76.2817L59.579 62.6008C59.4566 62.3652 59.4566 62.1202 59.579 61.8847Z" fill="#12AAFF"/>
<path d="M57.9019 23.1221C58.0244 23.1221 58.1375 23.1221 58.26 23.2446L80.336 35.9645C80.5715 36.0869 80.694 36.3225 80.694 36.6805V62.1202C80.694 62.3558 80.5715 62.7233 80.336 62.8363L58.26 75.5562C58.1375 75.6787 58.0244 75.6787 57.9019 75.6787C57.7794 75.6787 57.6664 75.6787 57.5439 75.5562L35.4679 62.8363C35.2323 62.7138 35.1098 62.4783 35.1098 62.1202V36.6805C35.1098 36.445 35.2323 36.0775 35.4679 35.9645L57.5439 23.2446C57.657 23.1221 57.7794 23.1221 57.9019 23.1221ZM57.9019 19.4004C57.0634 19.4004 56.3379 19.6359 55.6218 20.0034L33.5458 32.7233C32.1042 33.5618 31.2656 35.0034 31.2656 36.6805V62.1202C31.2656 63.6843 32.1042 65.239 33.5458 66.0775L55.6218 78.7974C56.3379 79.1554 57.0634 79.4004 57.9019 79.4004C58.7405 79.4004 59.466 79.1648 60.1821 78.7974L82.2581 66.0775C83.6997 65.239 84.5382 63.7974 84.5382 62.1202V36.6805C84.5382 35.1165 83.6997 33.5618 82.2581 32.7233L60.2951 20.0034C59.5791 19.6454 58.8536 19.4004 58.015 19.4004H57.9019Z" fill="#9DCCED"/>
<path d="M43.3824 71.5989L45.4176 66.0775L49.4974 69.4412L45.6626 73.0405L43.3824 71.5989Z" fill="#213147"/>
<path d="M60.1727 34.8809H65.8164L65.6941 34.7678C66.052 34.7678 66.2971 35.1259 66.1745 35.4839L51.297 76.2817L45.5401 72.918L59.2116 35.4839C59.3341 35.1165 59.8146 34.8809 60.1727 34.8809Z" fill="white"/>
<path d="M50.4584 34.8809H55.9797C56.3378 34.8809 56.5828 35.239 56.4602 35.597L43.2599 71.7214L37.503 68.3577L49.4974 35.4839C49.6198 35.1165 50.1003 34.8809 50.4584 34.8809Z" fill="white"/>
<path fill-rule="evenodd" clip-rule="evenodd" d="M109.724 42.0888C109.366 41.8533 108.885 41.7308 108.282 41.7308H106.831C106.35 41.7308 106.002 41.8533 105.634 42.0888C105.267 42.3244 104.909 42.6918 104.551 43.4079L97.3523 56.6083V56.9663C97.3523 57.0888 97.4749 57.0888 97.7105 57.0888H100.594C100.839 57.0888 100.952 57.0888 101.074 56.8533L102.638 53.9701H112.955L114.529 56.8533L114.543 56.8666C114.661 56.9757 114.783 57.0888 115.009 57.0888H117.77C118.006 57.0888 118.128 57.0888 118.128 56.9663C118.251 56.8439 118.251 56.7308 118.128 56.6083L110.807 43.4079C110.44 42.8049 110.082 42.3244 109.724 42.0888ZM111.514 51.4544H103.957L107.443 44.972C107.443 44.8495 107.557 44.8495 107.679 44.8495H107.801C107.848 44.8495 107.875 44.8495 107.899 44.8578C107.935 44.8699 107.965 44.8995 108.037 44.972L111.514 51.4544Z" fill="#213147"/>
<path fill-rule="evenodd" clip-rule="evenodd" d="M137.679 42.9274C136.963 42.0888 135.757 41.7308 134.08 41.7308H122.34C121.859 41.7308 121.624 41.9663 121.624 42.4469V56.7214C121.624 57.0794 121.746 57.2019 122.104 57.2019H124.507C124.865 57.2019 124.987 57.0794 124.987 56.7214V52.2836H132.063L135.54 56.8439C135.583 56.8865 135.609 56.9304 135.632 56.9687C135.671 57.0319 135.699 57.0794 135.776 57.0794C135.776 57.2019 135.898 57.2019 136.134 57.2019H139.017C139.252 57.2019 139.375 57.0888 139.375 56.9663C139.375 56.8439 139.375 56.7308 139.252 56.6083L135.531 51.9255C136.727 51.6805 137.566 51.2 138.046 50.4839C138.527 49.7679 138.763 48.8068 138.763 47.4877V46.2911C138.763 44.8495 138.395 43.6435 137.679 42.9274ZM133.354 49.6454H124.959V45.0756C124.959 44.9626 124.959 44.8401 125.195 44.8401H133.354C134.08 44.8401 134.56 44.9626 134.918 45.3206C135.276 45.5656 135.399 46.0461 135.399 46.7622V47.7233C135.399 48.3263 135.276 48.8068 134.918 49.1648C134.673 49.5229 134.07 49.6454 133.354 49.6454Z" fill="#213147"/>
<path fill-rule="evenodd" clip-rule="evenodd" d="M157.239 41.7308C158.803 41.7308 159.877 42.0888 160.48 42.6918C161.084 43.2949 161.442 44.2559 161.442 45.4525V46.5361C161.442 47.7327 160.961 48.6937 160 49.2967C160.961 49.8998 161.564 50.8608 161.564 52.1799V53.499C161.564 54.0675 161.455 54.5271 161.348 54.9804L161.328 55.0631C161.215 55.5436 160.971 55.9016 160.725 56.2597C160.367 56.6177 160.009 56.8627 159.529 56.9758C159.048 57.0983 158.445 57.2113 157.729 57.2113H144.651C144.171 57.2113 143.935 56.9758 143.935 56.4952V42.4563C143.935 41.9758 144.171 41.7402 144.651 41.7402H157.239V41.7308ZM147.29 48.0907H156.278C156.994 48.0907 157.475 47.9682 157.72 47.7327C157.965 47.4971 158.078 47.2521 158.078 46.7716V46.0555C158.078 45.575 157.955 45.217 157.72 45.0945C157.484 44.8589 157.004 44.7364 156.523 44.7364H147.525C147.29 44.7364 147.29 44.8589 147.29 44.972V48.0907ZM147.28 50.4934V53.7346C147.28 53.9701 147.403 53.9701 147.516 53.9701H156.514C157.117 53.9701 157.475 53.8476 157.71 53.6121C157.946 53.3765 158.068 53.0091 158.068 52.651V51.8125C158.068 51.3319 157.946 50.9739 157.71 50.7289C157.475 50.4839 156.994 50.3709 156.146 50.3709H147.158L147.28 50.4934Z" fill="#213147"/>
<path d="M170.195 42.2113C170.195 41.8533 170.072 41.7308 169.714 41.7308H167.312C166.954 41.7308 166.831 41.8533 166.831 42.2113V56.6083C166.831 56.9663 166.954 57.0888 167.312 57.0888H169.714C170.072 57.0888 170.195 56.9663 170.195 56.6083V42.2113Z" fill="#213147"/>
<path d="M192.874 41.7308C193.232 41.7308 193.354 41.8533 193.354 42.2113V44.369C193.354 44.727 193.232 44.8495 192.874 44.8495H185.911V56.6083C185.911 56.9663 185.788 57.0888 185.43 57.0888H183.027C182.67 57.0888 182.547 56.9663 182.547 56.6083V44.8495H175.584C175.226 44.8495 175.104 44.727 175.104 44.369V42.2113C175.104 41.8533 175.226 41.7308 175.584 41.7308H192.874Z" fill="#213147"/>
<path fill-rule="evenodd" clip-rule="evenodd" d="M213.876 42.9274C213.16 42.0888 211.954 41.7308 210.276 41.7308H198.536C198.056 41.7308 197.82 41.9663 197.82 42.4469V56.7214C197.82 57.0794 197.943 57.2019 198.301 57.2019H200.704C201.062 57.2019 201.184 57.0794 201.184 56.7214V52.2836H208.26L211.737 56.8439C211.779 56.8865 211.806 56.9304 211.829 56.9687C211.867 57.0319 211.896 57.0794 211.972 57.0794C211.972 57.2019 212.095 57.2019 212.33 57.2019H215.214C215.449 57.2019 215.572 57.0888 215.572 56.9663C215.572 56.8439 215.572 56.7308 215.449 56.6083L211.727 51.9255C212.924 51.6805 213.763 51.2 214.243 50.4839C214.724 49.7679 214.959 48.8068 214.959 47.4877V46.2911C214.959 44.8495 214.592 43.6435 213.876 42.9274ZM209.551 49.6454H201.156V45.0756C201.156 44.9626 201.156 44.8401 201.391 44.8401H209.551C210.276 44.8401 210.757 44.9626 211.115 45.3206C211.473 45.5656 211.595 46.0461 211.595 46.7622V47.7233C211.595 48.3263 211.473 48.8068 211.115 49.1648C210.87 49.5229 210.267 49.6454 209.551 49.6454Z" fill="#213147"/>
<path d="M222.638 41.7308C222.996 41.7308 223.119 41.8533 223.119 42.2113V50.9739C223.119 51.5769 223.119 52.0574 223.241 52.4155L223.26 52.4725L223.262 52.475C223.377 52.8128 223.49 53.1451 223.722 53.3765C223.967 53.6215 224.202 53.7346 224.56 53.857C224.918 53.9795 225.399 53.9795 226.002 53.9795H232.126C232.729 53.9795 233.21 53.9795 233.568 53.857L233.613 53.8416C233.956 53.7248 234.289 53.6111 234.406 53.3765C234.637 53.1454 234.76 52.7873 234.88 52.4357L234.887 52.4155C235.009 52.0574 235.009 51.5769 235.009 50.9739V42.2113C235.009 41.8533 235.132 41.7308 235.49 41.7308H237.893C238.251 41.7308 238.373 41.8533 238.373 42.2113V51.3319C238.373 52.4155 238.251 53.254 238.015 53.9701C237.78 54.6862 237.412 55.2892 236.932 55.7697C236.451 56.2503 235.848 56.6083 235.009 56.7308C234.171 56.9663 233.332 57.0888 232.126 57.0888H225.766C224.683 57.0888 223.722 56.9663 222.883 56.7308C222.167 56.4952 221.442 56.1278 220.961 55.7697C220.48 55.2892 220.122 54.6862 219.878 53.9701C219.642 53.254 219.519 52.293 219.519 51.3319V42.2113C219.519 41.8533 219.642 41.7308 220 41.7308H222.638Z" fill="#213147"/>
<path d="M248.671 41.8533C248.436 41.7308 248.191 41.7308 247.833 41.7308H245.553C244.827 41.7308 244.224 41.8533 243.989 42.2113C243.753 42.5694 243.631 43.1724 243.631 44.0109V56.6177C243.631 56.9758 243.753 57.0983 244.111 57.0983H246.401C246.759 57.0983 246.881 56.9758 246.881 56.6177V45.0945C246.881 44.9814 246.881 44.8589 247.004 44.8589H247.239C247.352 44.8589 247.475 44.8589 247.475 44.9814L251.913 54.8181C252.013 54.9646 252.093 55.1127 252.168 55.2527C252.277 55.4548 252.377 55.64 252.516 55.7792C252.56 55.8434 252.6 55.9037 252.637 55.9601C252.808 56.2181 252.926 56.3947 253.119 56.4952C253.276 56.5772 253.434 56.655 253.594 56.7342C253.674 56.7733 253.754 56.8128 253.835 56.8533C254.08 56.9758 254.438 56.9758 254.796 56.9758H255.879C256.237 56.9758 256.605 56.9758 256.841 56.8533C257.001 56.8533 257.166 56.7437 257.33 56.6351C257.406 56.5845 257.482 56.5342 257.557 56.4952C257.682 56.3743 257.773 56.2534 257.865 56.1311C257.952 56.0153 258.04 55.8984 258.16 55.7792C258.405 55.5342 258.64 55.1761 258.762 54.8181L263.2 44.9814C263.2 44.9814 263.313 44.8589 263.436 44.8589H263.672C263.672 44.8589 263.794 44.972 263.794 45.0945V56.6083C263.794 56.9663 263.916 57.0888 264.274 57.0888H266.555C266.913 57.0888 267.035 56.9663 267.035 56.6083V44.0109C267.035 43.1724 266.913 42.5694 266.677 42.2113C266.432 41.8533 265.829 41.7308 265.113 41.7308H262.71C262.514 41.7308 262.355 41.7675 262.211 41.8007C262.091 41.8282 261.983 41.8533 261.872 41.8533C261.627 41.8533 261.391 41.9663 261.269 42.0888C261.024 42.2113 260.911 42.3338 260.788 42.5694C260.543 42.8049 260.43 43.0499 260.308 43.4079L255.747 53.9701L255.703 54.0114C255.597 54.1111 255.497 54.2057 255.389 54.2057H255.154C254.981 54.2057 254.935 54.1446 254.874 54.0635C254.852 54.0343 254.828 54.0026 254.796 53.9701L250.235 43.4079C250.03 43.108 249.918 42.8874 249.815 42.6852L249.755 42.5694C249.67 42.3991 249.53 42.2926 249.412 42.2023C249.36 42.1627 249.312 42.1262 249.274 42.0888C249.152 41.9758 248.907 41.8533 248.671 41.8533Z" fill="#213147"/>
</svg>
