<svg width="300" height="100" viewBox="0 0 300 100" fill="none" xmlns="http://www.w3.org/2000/svg">
<path d="M241.972 42.7891C242.701 43.0649 243.45 43.6163 244.217 44.4435L247.113 42.3166C246.068 41.1152 244.936 40.2683 243.715 39.776C242.514 39.264 241.204 39.0079 239.787 39.0079C238.171 39.0079 236.684 39.2738 235.326 39.8056C233.986 40.3175 232.824 41.0561 231.84 42.0211C230.875 42.9861 230.116 44.1579 229.565 45.5365C229.013 46.8954 228.738 48.4119 228.738 50.0859C228.738 51.7204 229.013 53.2073 229.565 54.5465C230.116 55.8857 230.875 57.0379 231.84 58.0029C232.824 58.9482 233.986 59.6867 235.326 60.2184C236.684 60.7305 238.171 60.9866 239.787 60.9866C241.322 60.9866 242.77 60.6911 244.128 60.1003C245.488 59.5095 246.64 58.5641 247.585 57.2644L244.513 55.0783C243.823 55.9646 243.075 56.6145 242.268 57.0281C241.48 57.4219 240.663 57.6189 239.816 57.6189C238.733 57.6189 237.748 57.4219 236.862 57.0281C235.995 56.6341 235.247 56.0925 234.617 55.4032C233.986 54.7139 233.494 53.8967 233.139 52.9513C232.804 52.0061 232.638 50.9721 232.638 49.8495C232.638 48.8057 232.804 47.8309 233.139 46.925C233.494 46.019 233.986 45.2312 234.617 44.5617C235.247 43.8724 235.995 43.3406 236.862 42.9665C237.748 42.5725 238.733 42.3756 239.816 42.3756C240.544 42.3756 241.263 42.5134 241.972 42.7891Z" fill="#E84142"/>
<path fill-rule="evenodd" clip-rule="evenodd" d="M82.117 39.5397H85.337L94.3468 60.4548H90.0931L88.1433 55.6691H79.0742L77.1835 60.4548H73.0182L82.117 39.5397ZM86.8434 52.4787L83.6236 43.9709L80.3443 52.4787H86.8434Z" fill="#E84142"/>
<path d="M98.3394 39.5397H102.623L108.324 55.3442L114.203 39.5397H118.221L109.772 60.4548H106.552L98.3394 39.5397Z" fill="#E84142"/>
<path fill-rule="evenodd" clip-rule="evenodd" d="M134.744 39.5397H131.523L122.425 60.4548H126.59L128.48 55.6691H137.55L139.499 60.4548H143.753L134.744 39.5397ZM133.03 43.9709L136.25 52.4787H129.751L133.03 43.9709Z" fill="#E84142"/>
<path d="M151.986 39.5397H155.709V57.0871H164.6V60.4548H151.986V39.5397Z" fill="#E84142"/>
<path fill-rule="evenodd" clip-rule="evenodd" d="M183.198 39.5397H179.977L170.879 60.4548H175.044L176.935 55.6691H186.004L187.954 60.4548H192.207L183.198 39.5397ZM181.484 43.9709L184.704 52.4787H178.205L181.484 43.9709Z" fill="#E84142"/>
<path d="M200.441 39.5397H205.374L215.506 55.0783H215.566V39.5397H219.287V60.4548H214.561L204.221 44.414H204.163V60.4548H200.441V39.5397Z" fill="#E84142"/>
<path d="M255.992 39.5397H259.714V47.8702H269.492V39.5397H273.214V60.4548H269.492V51.2379H259.714V60.4548H255.992V39.5397Z" fill="#E84142"/>
<path d="M297.651 39.5397H283.796V60.4548H298.183V57.0871H287.518V51.4152H297.119V48.0475H287.518V42.9074H297.651V39.5397Z" fill="#E84142"/>
<path fill-rule="evenodd" clip-rule="evenodd" d="M62 50C62 66.5685 48.5686 80 32 80C15.4315 80 2 66.5685 2 50C2 33.4315 15.4315 20 32 20C48.5686 20 62 33.4315 62 50ZM23.499 61.9379H17.6768C16.4534 61.9379 15.8491 61.9379 15.4806 61.702C15.0826 61.444 14.8394 61.0166 14.8099 60.545C14.7878 60.1101 15.09 59.5795 15.6943 58.5182L30.0699 33.1792C30.6816 32.1032 30.9912 31.5652 31.3818 31.3662C31.8019 31.1526 32.303 31.1526 32.7231 31.3662C33.1137 31.5652 33.4232 32.1032 34.0349 33.1792L37.0054 38.3644C37.666 39.5188 38.0011 40.1042 38.1473 40.7185C38.3094 41.3892 38.3094 42.0967 38.1473 42.7673C37.9999 43.3865 37.6682 43.9761 36.9976 45.1479L29.4465 58.4962L29.4269 58.5304C28.7618 59.6942 28.4248 60.284 27.9577 60.7292C27.4492 61.2156 26.8375 61.5693 26.1669 61.7683C25.5552 61.9379 24.8698 61.9379 23.499 61.9379ZM38.2018 61.9385H46.5445C47.7753 61.9385 48.3943 61.9385 48.7629 61.6954C49.1608 61.4374 49.4114 61.0025 49.4335 60.5309C49.4548 60.1104 49.1592 59.6003 48.5799 58.6008C48.5601 58.5666 48.54 58.5321 48.5196 58.4968L44.3409 51.3481L44.2934 51.2677C43.7062 50.2746 43.4096 49.7732 43.0291 49.5793C42.609 49.3656 42.1153 49.3656 41.6952 49.5793C41.3119 49.7783 41.0024 50.3016 40.3907 51.3554L36.2267 58.5041L36.2125 58.5288C35.6029 59.581 35.2983 60.1068 35.3203 60.5383C35.3497 61.0099 35.5929 61.4448 35.9909 61.7027C36.352 61.9385 36.971 61.9385 38.2018 61.9385Z" fill="#E84142"/>
<path d="M17.6768 61.9379H23.499C24.8699 61.9379 25.5552 61.9379 26.1669 61.7683C26.8375 61.5693 27.4492 61.2156 27.9577 60.7292C28.4248 60.284 28.7619 59.6942 29.427 58.5304L29.4465 58.4962L36.9976 45.1479C37.6683 43.9761 38 43.3865 38.1474 42.7673C38.3095 42.0967 38.3095 41.3892 38.1474 40.7185C38.0012 40.1046 37.6663 39.5196 37.0065 38.3667L37.0054 38.3644L34.0349 33.1792C33.4232 32.1032 33.1137 31.5652 32.7231 31.3662C32.3031 31.1526 31.8019 31.1526 31.3819 31.3662C30.9912 31.5653 30.6816 32.1032 30.0699 33.1792L15.6943 58.5182C15.09 59.5795 14.7878 60.1101 14.8099 60.545C14.8394 61.0166 15.0826 61.444 15.4806 61.702C15.8491 61.9379 16.4533 61.9379 17.6768 61.9379Z" fill="white"/>
<path d="M46.5445 61.9385H38.2019C36.971 61.9385 36.3521 61.9385 35.9909 61.7027C35.5929 61.4448 35.3497 61.0099 35.3203 60.5383C35.2983 60.1068 35.6029 59.581 36.2125 58.5288L36.2267 58.5041L40.3907 51.3554C41.0025 50.3016 41.312 49.7783 41.6953 49.5793C42.1153 49.3656 42.6091 49.3656 43.0291 49.5793C43.4096 49.7732 43.7062 50.2746 44.2934 51.2677L44.3409 51.3481L48.5196 58.4968L48.58 58.6008C49.1592 59.6003 49.4548 60.1104 49.4336 60.5309C49.4114 61.0025 49.1608 61.4374 48.7629 61.6954C48.3943 61.9385 47.7753 61.9385 46.5445 61.9385Z" fill="white"/>
</svg>
