<svg width="300" height="100" viewBox="0 0 300 100" fill="none" xmlns="http://www.w3.org/2000/svg">
<path d="M16.3371 32.7107L29.6628 25L42.9886 32.7107L37.9886 35.4214L29.6628 30.6264L21.1207 35.4214L16.3371 32.7107ZM42.7835 42.2893L37.9886 39.5786L29.6628 44.3736L21.1207 39.5786L16.3257 42.2893V47.9157L24.6628 52.7107V62.5057L29.4578 65.4214L34.2528 62.5057V52.9271L42.5899 48.1321V42.3007H42.7835V42.2893ZM42.7835 57.7107V52.0843L37.9886 55V60.41L42.7835 57.7107ZM46.3257 59.5786L37.9999 64.3736V70L51.3371 62.2893V46.8793L46.3371 50L46.3257 59.5786ZM41.5307 37.5057L46.3257 40.4214V46.0478L51.1207 43.1321V37.5057L46.3257 34.59L41.5307 37.5057ZM24.6628 66.4579V72.0843L29.4578 75L34.2528 72.0843V66.4579L29.4578 69.3736L24.6628 66.4579ZM16.3257 57.7107L21.1207 60.4214V54.795L16.3257 51.8793V57.7107ZM24.6628 37.5057L29.4578 40.4214L34.4578 37.5057L29.6628 34.59L24.6628 37.5057ZM12.795 40.4214L17.795 37.5057L12.795 34.59L8 37.5057V43.1321L12.795 46.0478V40.4214ZM12.795 50L8 47.0843V62.4943L21.3371 70.205V64.5786L13 59.7836V49.9886L12.795 50Z" fill="#F0B90B"/>
<path d="M89.6512 56.4578C89.6512 52.7106 87.5669 50.8313 84.4462 49.5785C86.5305 48.542 88.1934 46.6628 88.1934 43.542C88.1934 39.1685 84.6512 36.2527 79.0248 36.2527H66.1091V64.1685H79.4348C85.4827 63.9521 89.6512 61.4578 89.6512 56.4578ZM81.9405 44.5785C81.9405 46.6628 80.2777 47.4942 77.567 47.4942H71.9406V41.4578H77.977C80.6991 41.4578 81.9405 42.5056 81.9405 44.5785ZM83.6148 55.6263C83.6148 57.7106 81.9519 58.7471 79.2412 58.7471H71.9519V52.7106H79.0362C82.1569 52.4942 83.6148 53.7471 83.6148 55.6263Z" fill="#F0B90B"/>
<path d="M119.856 36.2528H113.809V53.3371L100.688 36.2528H95.0728V64.1686H101.109V46.4579L114.651 64.1686H119.856V36.2528Z" fill="#F0B90B"/>
<path d="M150.471 56.4578C150.471 52.7106 148.387 50.8313 145.266 49.5785C147.351 48.542 149.014 46.6628 149.014 43.542C149.014 39.1685 145.471 36.2527 139.845 36.2527H126.929V64.1685H140.255C146.303 63.9521 150.471 61.4578 150.471 56.4578ZM142.977 44.5785C142.977 46.6628 141.314 47.4942 138.604 47.4942H132.977V41.4578H139.014C141.519 41.4578 142.977 42.5056 142.977 44.5785ZM144.435 55.6263C144.435 57.7106 142.772 58.7471 140.061 58.7471H132.772V52.7106H139.856C142.977 52.4942 144.435 53.7471 144.435 55.6263Z" fill="#F0B90B"/>
<path d="M187.339 59.1687L184.219 56.048C181.929 58.3373 179.64 59.5902 176.303 59.5902C170.881 59.5902 167.134 55.2166 167.134 49.5902C167.134 44.1687 171.098 39.8066 176.303 39.8066C179.424 39.8066 181.929 41.2644 184.014 43.3487L187.134 39.6015C184.424 37.1072 181.303 35.228 176.303 35.228C167.966 35.228 161.929 41.6858 161.929 49.6015C161.929 57.7223 167.966 63.9751 176.098 63.9751C181.303 63.9523 184.424 62.0845 187.339 59.1687Z" fill="#F0B90B"/>
<path d="M211.086 51.8793V63.5421H215.881V35.6264H211.086V47.2893H197.761V35.6264H192.966V63.5421H197.761V51.8793H211.086Z" fill="#F0B90B"/>
<path d="M237.954 35.6265H233.375L221.086 63.7473H226.086L229.001 57.0844H242.122L245.038 63.7473H250.243L237.954 35.6265ZM240.459 52.4944H230.881L235.676 41.458L240.459 52.4944Z" fill="#F0B90B"/>
<path d="M255.665 35.6264V63.5421H260.448V35.6264H255.665Z" fill="#F0B90B"/>
<path d="M287.738 55.0001L272.738 35.8315H268.365V63.7473H273.16V43.7473L288.57 63.5422H292.738V35.6265H287.943V55.0001H287.738Z" fill="#F0B90B"/>
</svg>
