<svg width="300" height="100" viewBox="0 0 300 100" fill="none" xmlns="http://www.w3.org/2000/svg">
<path d="M73.2423 54.5765C69.6362 69.0408 54.9863 77.8436 40.5203 74.2366C26.0603 70.6304 17.2575 55.9797 20.8653 41.5163C24.4698 27.0503 39.1197 18.2467 53.5814 21.8529C68.0466 25.459 76.8485 40.1114 73.2423 54.5765Z" fill="#F7931A"/>
<path d="M58.9536 44.1985C59.491 40.6059 56.7556 38.6746 53.0153 37.3862L54.2286 32.5195L51.2662 31.7812L50.085 36.5196C49.3062 36.3256 48.5063 36.1425 47.7115 35.9611L48.9012 31.1914L45.9405 30.4531L44.7264 35.3182C44.0818 35.1713 43.4489 35.0262 42.8347 34.8735L42.8381 34.8583L38.7527 33.8382L37.9646 37.0023C37.9646 37.0023 40.1626 37.506 40.1162 37.5372C41.316 37.8367 41.5328 38.6307 41.4965 39.2601L40.1145 44.8043C40.1972 44.8254 40.3043 44.8558 40.4224 44.9031C40.3237 44.8786 40.2183 44.8516 40.1094 44.8254L38.1722 52.5921C38.0254 52.9566 37.6533 53.5033 36.8146 53.2957C36.8441 53.3388 34.6614 52.7583 34.6614 52.7583L33.1907 56.1493L37.0458 57.1103C37.763 57.29 38.4658 57.4782 39.1577 57.6554L37.9317 62.5777L40.8907 63.316L42.1049 58.4459C42.9132 58.6653 43.6978 58.8678 44.4657 59.0585L43.2557 63.9058L46.2181 64.6441L47.4441 59.731C52.4956 60.6869 56.2941 60.3013 57.893 55.7325C59.1814 52.0538 57.8289 49.9318 55.1711 48.548C57.1066 48.1017 58.5646 46.8285 58.9536 44.1985ZM52.1851 53.6898C51.2696 57.3685 45.0757 55.3798 43.0676 54.8811L44.6943 48.3599C46.7024 48.861 53.1419 49.8533 52.1851 53.6898ZM53.1014 44.1454C52.2661 47.4916 47.1108 45.7915 45.4385 45.3747L46.9134 39.4601C48.5857 39.8769 53.9713 40.6548 53.1014 44.1454Z" fill="white"/>
<path d="M99.1756 37.3845C101.365 37.3845 103.257 37.7768 104.846 38.5472C106.444 39.3251 107.762 40.373 108.819 41.6909C109.862 43.0156 110.638 44.5639 111.139 46.3383C111.637 48.1177 111.887 50.0305 111.887 52.0782C111.887 55.2237 111.31 58.1954 110.147 60.9966C108.983 63.802 107.405 66.2354 105.397 68.311C103.39 70.384 101.021 72.0184 98.2888 73.2258C95.561 74.434 92.5953 75.0381 89.411 75.0381C88.9992 75.0381 88.2753 75.0263 87.2527 75.0052C86.2301 74.9841 85.0547 74.8787 83.7385 74.7006C82.4138 74.5158 81.0132 74.2425 79.5341 73.8763C78.0559 73.5169 76.6519 73.0131 75.3298 72.3736L87.1523 22.6975L97.7412 21.0564L93.5082 38.6847C94.4144 38.2763 95.3273 37.9599 96.2385 37.7296C97.1506 37.5026 98.1294 37.3845 99.1756 37.3845ZM90.2935 66.6378C91.8882 66.6378 93.3909 66.2455 94.8025 65.4752C96.2183 64.704 97.44 63.6628 98.4635 62.366C99.4869 61.0632 100.297 59.596 100.888 57.9566C101.478 56.3172 101.777 54.6069 101.777 52.8275C101.777 50.6413 101.412 48.9361 100.683 47.7034C99.9552 46.4758 98.6077 45.8582 96.6511 45.8582C96.0099 45.8582 95.1838 45.9805 94.1595 46.199C93.1319 46.4311 92.2122 46.9128 91.3879 47.6376L86.8806 66.3586C87.1523 66.4067 87.3927 66.4522 87.5978 66.4952C87.7986 66.5416 88.0205 66.5746 88.2415 66.5973C88.4753 66.6235 88.7427 66.637 89.0659 66.637C89.389 66.637 89.7932 66.6378 90.2935 66.6378Z" fill="#4D4D4D"/>
<path d="M122.87 74.083H112.756L121.298 38.1422H131.481L122.87 74.083ZM127.792 33.7631C126.38 33.7631 125.1 33.343 123.965 32.5009C122.82 31.6639 122.253 30.3755 122.253 28.6391C122.253 27.684 122.447 26.7879 122.832 25.9425C123.222 25.0988 123.733 24.3723 124.372 23.7547C125.011 23.1421 125.751 22.6528 126.591 22.284C127.437 21.9212 128.336 21.7398 129.295 21.7398C130.705 21.7398 131.979 22.16 133.118 23.0021C134.254 23.8483 134.825 25.1367 134.825 26.8639C134.825 27.8224 134.632 28.7218 134.244 29.5655C133.858 30.4093 133.348 31.1357 132.708 31.7533C132.075 32.3667 131.328 32.8544 130.489 33.2198C129.643 33.5885 128.747 33.7631 127.792 33.7631Z" fill="#4D4D4D"/>
<path d="M140.343 29.1892L150.936 27.5481L148.335 38.1422H159.68L157.631 46.4766H146.354L143.351 59.0484C143.074 60.0963 142.917 61.075 142.873 61.9846C142.823 62.8984 142.939 63.6831 143.212 64.3437C143.484 65.006 143.972 65.5165 144.681 65.8776C145.387 66.2447 146.396 66.4294 147.721 66.4294C148.812 66.4294 149.875 66.3256 150.903 66.1198C151.925 65.9173 152.96 65.6355 154.008 65.2668L154.762 73.0595C153.395 73.5607 151.915 73.9919 150.321 74.3547C148.724 74.7226 146.833 74.8997 144.647 74.8997C141.505 74.8997 139.069 74.4332 137.334 73.5042C135.601 72.5685 134.376 71.2902 133.642 69.6719C132.919 68.0595 132.596 66.2008 132.687 64.1066C132.78 62.0074 133.097 59.801 133.642 57.4773L140.343 29.1892Z" fill="#4D4D4D"/>
<path d="M159.233 59.7352C159.233 56.6395 159.734 53.7201 160.736 50.9873C161.736 48.2519 163.176 45.8599 165.045 43.807C166.907 41.7643 169.176 40.146 171.846 38.958C174.504 37.7768 177.48 37.1811 180.76 37.1811C182.812 37.1811 184.646 37.3752 186.259 37.7642C187.879 38.1565 189.345 38.6636 190.67 39.2998L187.182 47.2309C186.271 46.8614 185.325 46.5357 184.347 46.2404C183.368 45.9392 182.174 45.794 180.76 45.794C177.385 45.794 174.716 46.9576 172.73 49.277C170.751 51.5981 169.755 54.7225 169.755 58.6417C169.755 60.9645 170.256 62.8427 171.262 64.2796C172.262 65.7165 174.111 66.4311 176.795 66.4311C178.12 66.4311 179.398 66.2927 180.622 66.0227C181.856 65.7494 182.945 65.4051 183.904 64.9984L184.659 73.1287C183.38 73.6248 181.969 74.0729 180.422 74.4652C178.871 74.8441 177.025 75.0406 174.885 75.0406C172.059 75.0406 169.667 74.6272 167.71 73.813C165.753 72.9861 164.135 71.8884 162.861 70.4979C161.58 69.1041 160.661 67.4765 160.092 65.6085C159.523 63.7421 159.233 61.7812 159.233 59.7352Z" fill="#4D4D4D"/>
<path d="M204.161 75.039C201.747 75.039 199.65 74.6711 197.872 73.9429C196.098 73.2148 194.629 72.193 193.467 70.8683C192.304 69.5504 191.433 67.9887 190.836 66.189C190.24 64.3901 189.953 62.398 189.953 60.2153C189.953 57.4773 190.393 54.7402 191.281 52.0107C192.165 49.2753 193.477 46.8175 195.214 44.6331C196.937 42.4452 199.062 40.6565 201.565 39.2618C204.065 37.8764 206.94 37.1794 210.17 37.1794C212.54 37.1794 214.626 37.5482 216.429 38.2763C218.223 39.0028 219.702 40.033 220.87 41.3509C222.026 42.6756 222.905 44.2306 223.495 46.0328C224.09 47.8283 224.384 49.8254 224.384 52.0099C224.384 54.7394 223.95 57.4765 223.089 60.2144C222.228 62.9389 220.95 65.4026 219.262 67.5921C217.578 69.7765 215.472 71.5644 212.942 72.9532C210.416 74.342 207.487 75.039 204.161 75.039ZM209.216 45.7932C207.716 45.7932 206.391 46.2286 205.256 47.0883C204.117 47.9582 203.16 49.0517 202.389 50.3705C201.609 51.6952 201.031 53.1397 200.641 54.7099C200.253 56.2834 200.064 57.771 200.064 59.1842C200.064 61.4648 200.431 63.2409 201.155 64.5192C201.888 65.7907 203.205 66.4303 205.119 66.4303C206.624 66.4303 207.942 65.9983 209.084 65.1292C210.216 64.2661 211.174 63.1717 211.951 61.8504C212.726 60.5325 213.309 59.0838 213.699 57.5111C214.081 55.9426 214.276 54.4466 214.276 53.0359C214.276 50.7612 213.91 48.9809 213.18 47.7043C212.451 46.4328 211.128 45.7932 209.216 45.7932Z" fill="#4D4D4D"/>
<path d="M235.408 74.083H225.286L233.827 38.1422H244.015L235.408 74.083ZM240.322 33.7631C238.911 33.7631 237.632 33.343 236.498 32.5009C235.359 31.6639 234.787 30.3755 234.787 28.6391C234.787 27.684 234.984 26.7879 235.369 25.9425C235.755 25.0988 236.269 24.3723 236.908 23.7547C237.543 23.1421 238.29 22.6528 239.129 22.284C239.969 21.9212 240.869 21.7398 241.824 21.7398C243.238 21.7398 244.515 22.16 245.653 23.0021C246.791 23.8483 247.365 25.1367 247.365 26.8639C247.365 27.8224 247.161 28.7218 246.779 29.5655C246.397 30.4093 245.883 31.1357 245.246 31.7533C244.605 32.3667 243.867 32.8544 243.027 33.2198C242.18 33.5885 241.282 33.7631 240.322 33.7631Z" fill="#4D4D4D"/>
<path d="M251.3 39.7799C252.068 39.5554 252.925 39.2854 253.857 38.9918C254.793 38.6982 255.838 38.4248 257.006 38.1784C258.161 37.9245 259.465 37.7186 260.898 37.5591C262.332 37.3963 263.965 37.317 265.78 37.317C271.114 37.317 274.791 38.8703 276.821 41.9677C278.85 45.065 279.201 49.304 277.884 54.677L273.232 74.083H263.051L267.56 55.0853C267.835 53.899 268.051 52.7524 268.211 51.6319C268.372 50.5215 268.363 49.5428 268.175 48.6957C267.995 47.8587 267.571 47.1736 266.914 46.6428C266.247 46.1206 265.238 45.8582 263.871 45.8582C262.552 45.8582 261.21 45.9999 259.841 46.2733L253.212 74.0822H243.027L251.3 39.7799Z" fill="#4D4D4D"/>
</svg>
