<svg width="300" height="100" viewBox="0 0 300 100" fill="none" xmlns="http://www.w3.org/2000/svg">
<path d="M138.853 53.6035V63.6078C138.847 63.8129 138.763 64.008 138.618 64.1531C138.473 64.2982 138.278 64.3823 138.073 64.3883C137.969 64.3912 137.867 64.373 137.771 64.3349C137.675 64.2967 137.587 64.2393 137.514 64.1662C137.441 64.0932 137.384 64.0059 137.346 63.9099C137.307 63.8139 137.289 63.7111 137.292 63.6078V53.6035C137.292 50.2214 135.376 46.863 131.616 46.863C126.791 46.863 124.71 51.0729 124.994 55.401C124.994 55.4674 125.009 55.6535 125.022 55.8163C125.032 55.9425 125.041 56.0559 125.041 56.0868V63.5842C125.041 63.784 124.969 63.9771 124.839 64.1289C124.709 64.2806 124.529 64.381 124.331 64.4119C124.221 64.4266 124.109 64.4173 124.003 64.3845C123.896 64.3518 123.798 64.2966 123.715 64.2225C123.632 64.1484 123.566 64.0572 123.521 63.9552C123.476 63.8532 123.454 63.7428 123.456 63.6315V30.7331C123.458 30.5267 123.541 30.3292 123.687 30.1833C123.833 30.0373 124.03 29.9545 124.237 29.9526C124.442 29.9586 124.637 30.0427 124.782 30.1878C124.927 30.3329 125.011 30.528 125.017 30.7331V49.3227C126.365 46.9103 128.778 45.2784 131.592 45.2784C136.228 45.2784 138.853 49.3227 138.853 53.6035Z" fill="#393939"/>
<path d="M113.737 45.8448C113.592 45.6997 113.397 45.6155 113.192 45.6096H109.006V39.5313C109.008 39.42 108.986 39.3096 108.941 39.2076C108.896 39.1056 108.83 39.0144 108.747 38.9403C108.664 38.8662 108.566 38.8109 108.46 38.7782C108.353 38.7455 108.241 38.7362 108.131 38.7508C107.933 38.7818 107.753 38.8822 107.623 39.0339C107.493 39.1856 107.421 39.3788 107.421 39.5786V45.6096H103.377C103.17 45.6114 102.973 45.6943 102.827 45.8402C102.681 45.9862 102.598 46.1836 102.596 46.3901C102.593 46.4933 102.611 46.5962 102.65 46.6922C102.688 46.7882 102.745 46.8754 102.818 46.9485C102.891 47.0215 102.979 47.0789 103.075 47.1171C103.171 47.1553 103.273 47.1735 103.377 47.1705H107.421V63.7025C107.427 63.9076 107.511 64.1027 107.656 64.2478C107.801 64.3929 107.996 64.477 108.202 64.483C108.408 64.4811 108.605 64.3983 108.751 64.2523C108.897 64.1063 108.98 63.9089 108.982 63.7025V47.1705H113.192C113.295 47.1735 113.398 47.1553 113.494 47.1171C113.59 47.0789 113.677 47.0215 113.75 46.9485C113.823 46.8754 113.881 46.7882 113.919 46.6922C113.957 46.5962 113.975 46.4933 113.972 46.3901C113.966 46.1849 113.882 45.9899 113.737 45.8448Z" fill="#393939"/>
<path fill-rule="evenodd" clip-rule="evenodd" d="M93.8743 55.5412C94.0338 55.3861 94.1255 55.1742 94.1292 54.9517C94.1055 49.914 90.3214 45.2312 85.0236 45.2312C79.7258 45.2312 75.9653 49.9613 75.9653 54.999C75.9653 60.0366 79.7495 64.7668 85.0236 64.7668C88.0982 64.7668 91.2438 63.4187 92.8284 60.6752C92.9061 60.5555 92.9472 60.4158 92.9467 60.2731C92.9496 60.1698 92.9314 60.067 92.8932 59.971C92.855 59.875 92.7977 59.7878 92.7246 59.7147C92.6515 59.6416 92.5643 59.5842 92.4683 59.5461C92.3723 59.5079 92.2695 59.4897 92.1662 59.4926C92.0277 59.4984 91.8927 59.5381 91.7731 59.6082C91.6535 59.6783 91.553 59.7767 91.4803 59.8947C89.9193 62.1415 87.8381 63.2058 85.0236 63.2058C80.9084 63.2058 77.9993 59.6582 77.5972 55.7794H93.2778C93.5003 55.782 93.7147 55.6963 93.8743 55.5412ZM85.0236 46.7921C89.1389 46.7921 92.1189 50.3398 92.45 54.2185H77.5972C77.9993 50.3398 80.9084 46.7921 85.0236 46.7921Z" fill="#393939"/>
<path fill-rule="evenodd" clip-rule="evenodd" d="M166.766 55.5412C166.926 55.3861 167.017 55.1742 167.021 54.9517C166.998 49.914 163.166 45.2312 157.916 45.2312C152.618 45.2312 148.857 49.9613 148.857 54.999C148.857 60.0366 152.641 64.7668 157.916 64.7668C160.99 64.7668 164.136 63.4187 165.72 60.6752C165.798 60.5555 165.839 60.4158 165.839 60.2731C165.842 60.1698 165.823 60.067 165.785 59.971C165.747 59.875 165.69 59.7878 165.617 59.7147C165.544 59.6416 165.456 59.5842 165.36 59.5461C165.264 59.5079 165.161 59.4897 165.058 59.4926C164.92 59.4984 164.785 59.5381 164.665 59.6082C164.546 59.6783 164.445 59.7767 164.372 59.8947C162.811 62.1415 160.73 63.2058 157.916 63.2058C153.8 63.2058 150.891 59.6582 150.489 55.7794H166.17C166.392 55.782 166.607 55.6963 166.766 55.5412ZM157.892 46.7921C162.007 46.7921 164.987 50.3398 165.318 54.2185H150.466C150.868 50.3398 153.777 46.7921 157.892 46.7921Z" fill="#393939"/>
<path d="M186.297 46.3427C186.312 46.5527 186.243 46.7601 186.106 46.9196C185.968 47.0791 185.773 47.1778 185.564 47.1941C180.952 47.88 178.87 51.6405 178.87 56.0159V63.5132C178.87 63.7131 178.798 63.9062 178.668 64.0579C178.538 64.2097 178.358 64.31 178.161 64.341C178.05 64.3556 177.938 64.3463 177.832 64.3136C177.725 64.2809 177.627 64.2256 177.544 64.1515C177.461 64.0774 177.395 63.9862 177.35 63.8843C177.306 63.7822 177.284 63.6718 177.286 63.5605V46.4609C177.286 46.2611 177.358 46.068 177.488 45.9162C177.618 45.7645 177.798 45.6641 177.995 45.6332C178.106 45.6185 178.218 45.6279 178.324 45.6606C178.431 45.6933 178.529 45.7485 178.612 45.8226C178.695 45.8967 178.761 45.9879 178.806 46.0899C178.85 46.1919 178.872 46.3023 178.87 46.4136V49.8903C180.171 47.6908 182.749 45.6095 185.445 45.6095C185.847 45.6095 186.297 45.8933 186.297 46.3427Z" fill="#393939"/>
<path fill-rule="evenodd" clip-rule="evenodd" d="M211.821 55.5412C211.981 55.3861 212.072 55.1742 212.076 54.9517C212.052 49.914 208.268 45.2312 202.971 45.2312C197.673 45.2312 193.912 49.9613 193.912 54.999C193.912 60.0366 197.696 64.7668 202.971 64.7668C206.045 64.7668 209.191 63.4187 210.775 60.6752C210.853 60.5555 210.894 60.4158 210.894 60.2731C210.896 60.1698 210.878 60.067 210.84 59.971C210.802 59.875 210.745 59.7878 210.671 59.7147C210.598 59.6416 210.511 59.5842 210.415 59.5461C210.319 59.5079 210.216 59.4897 210.113 59.4926C209.975 59.4984 209.84 59.5381 209.72 59.6082C209.6 59.6783 209.5 59.7767 209.427 59.8947C207.866 62.1415 205.785 63.2058 202.971 63.2058C198.855 63.2058 195.946 59.6582 195.544 55.7794H211.225C211.447 55.782 211.662 55.6963 211.821 55.5412ZM202.971 46.7921C207.086 46.7921 210.066 50.3398 210.397 54.2185H195.544C195.946 50.3398 198.855 46.7921 202.971 46.7921Z" fill="#393939"/>
<path d="M237.43 46.5319V63.7024C237.424 63.9075 237.34 64.1026 237.195 64.2477C237.05 64.3928 236.855 64.4769 236.649 64.4829C236.546 64.4858 236.443 64.4676 236.347 64.4295C236.251 64.3913 236.164 64.3339 236.091 64.2608C236.018 64.1878 235.961 64.1005 235.922 64.0045C235.884 63.9085 235.866 63.8057 235.869 63.7024V60.4386C234.568 63.0165 232.274 64.8849 229.341 64.8849C224.682 64.8849 222.104 60.8407 222.104 56.5598V46.5082C222.106 46.3018 222.189 46.1044 222.335 45.9584C222.481 45.8124 222.678 45.7296 222.885 45.7278C223.09 45.7337 223.285 45.8178 223.43 45.9629C223.575 46.108 223.659 46.3031 223.665 46.5082V56.5598C223.665 59.9419 225.581 63.3003 229.341 63.3003C234.615 63.3003 235.869 58.3573 235.869 52.894V46.4846C235.871 46.3581 235.903 46.2338 235.962 46.1222C236.022 46.0106 236.107 45.9149 236.212 45.8431C236.316 45.7713 236.436 45.7255 236.561 45.7095C236.687 45.6936 236.814 45.708 236.933 45.7514C237.082 45.8205 237.208 45.9307 237.296 46.069C237.384 46.2073 237.43 46.3679 237.43 46.5319Z" fill="#393939"/>
<path d="M277.14 63.5841V53.5325C277.14 49.2754 274.514 45.2784 269.903 45.2784C266.662 45.2784 264.132 47.336 262.831 50.2687C261.814 47.3124 259.331 45.2784 256.138 45.2784C253.323 45.2784 250.911 46.863 249.563 49.2754V46.4136C249.565 46.3023 249.543 46.1919 249.498 46.0899C249.453 45.9879 249.387 45.8967 249.304 45.8226C249.221 45.7485 249.123 45.6932 249.017 45.6605C248.91 45.6278 248.798 45.6185 248.688 45.6331C248.49 45.6641 248.31 45.7645 248.18 45.9162C248.05 46.0679 247.979 46.2611 247.978 46.4609V63.6078C247.976 63.7191 247.998 63.8295 248.043 63.9315C248.087 64.0335 248.154 64.1247 248.237 64.1988C248.32 64.2729 248.418 64.3282 248.524 64.3609C248.631 64.3936 248.743 64.4029 248.853 64.3883C249.051 64.3573 249.231 64.2569 249.361 64.1052C249.491 63.9535 249.562 63.7603 249.563 63.5605V56.0159C249.595 55.9676 249.583 55.8537 249.573 55.7485C249.568 55.6991 249.563 55.6516 249.563 55.6138C249.397 50.5998 251.36 46.8393 256.138 46.8393C259.898 46.8393 261.814 50.1505 261.814 53.5325V63.5841C261.811 63.6874 261.829 63.7902 261.867 63.8863C261.906 63.9823 261.963 64.0695 262.036 64.1426C262.109 64.2156 262.196 64.273 262.292 64.3112C262.388 64.3494 262.491 64.3676 262.594 64.3646C262.8 64.3587 262.995 64.2745 263.14 64.1294C263.285 63.9843 263.369 63.7892 263.375 63.5841V55.8267C263.375 51.9006 265.172 46.8393 269.903 46.8393C273.663 46.8393 275.579 50.1505 275.579 53.5325V63.5841C275.576 63.6874 275.594 63.7902 275.632 63.8863C275.67 63.9823 275.728 64.0695 275.801 64.1426C275.874 64.2156 275.961 64.273 276.057 64.3112C276.153 64.3494 276.256 64.3676 276.359 64.3646C276.564 64.3587 276.759 64.2745 276.905 64.1294C277.05 63.9843 277.134 63.7892 277.14 63.5841Z" fill="#393939"/>
<path d="M41.6231 62.0335C41.4318 62.0985 41.3228 61.9321 41.1928 61.8556C34.8171 58.0927 28.4484 54.3272 22.0868 50.5592C22.0252 50.5281 21.9612 50.5018 21.8955 50.4808V50.3966L22.0084 50.3316C22.1686 50.2895 22.3263 50.2384 22.4808 50.1786L37.5051 43.3426C38.844 42.7324 40.1829 42.1318 41.5218 41.5274H41.6174C41.6174 41.7187 41.6174 41.8889 41.6174 42.0706C41.6225 48.7255 41.6244 55.3798 41.6231 62.0335Z" fill="#343535"/>
<path d="M41.6326 41.5321H41.537C41.537 41.3408 41.5561 41.1495 41.5561 40.9487C41.5561 33.4739 41.5561 25.9984 41.5561 18.5223C41.5341 18.3303 41.5471 18.1359 41.5944 17.9485H41.6345C42.4207 19.1095 43.1054 20.3336 43.8284 21.5329C49.5563 31.0339 55.281 40.5336 61.0026 50.0321C61.058 50.1258 61.102 50.2234 61.1517 50.3266C60.9897 50.292 60.8305 50.2454 60.6755 50.187C59.6254 49.7127 58.5715 49.2307 57.531 48.7468C55.9014 48.0008 54.2711 47.2561 52.6402 46.5127L44.7828 42.9532C43.7366 42.4712 42.6846 42.0026 41.6326 41.5321Z" fill="#2F3030"/>
<path d="M41.6007 17.9386C41.5534 18.126 41.5404 18.3204 41.5624 18.5124C41.5624 25.9872 41.5624 33.4627 41.5624 40.9388C41.5624 41.1301 41.5509 41.3213 41.5433 41.5222C40.2044 42.1266 38.8655 42.7272 37.5266 43.3373L22.5023 50.1733C22.3479 50.2332 22.1901 50.2843 22.0299 50.3263C22.4641 49.4235 23.0283 48.6049 23.5428 47.7404C29.5041 37.8313 35.4698 27.9242 41.44 18.0189C41.4794 17.9641 41.5222 17.9117 41.5682 17.8621L41.6007 17.9386Z" fill="#828384"/>
<path d="M41.6326 41.5321C42.6846 42.0026 43.7369 42.4714 44.787 42.9457L52.6444 46.5052C54.2765 47.2474 55.9068 47.992 57.5352 48.7393C58.5833 49.2194 59.6391 49.7052 60.6796 50.1795C60.8347 50.2379 60.9939 50.2845 61.1559 50.3192C61.3472 50.5583 61.0641 50.5678 60.978 50.6195C59.3465 51.5949 57.7073 52.557 56.0719 53.5248C51.3782 56.3021 46.6857 59.0787 41.9944 61.8547C41.8758 61.9235 41.7474 61.9742 41.6231 62.0335C41.6231 55.3811 41.6234 48.7291 41.6234 42.0754C41.6253 41.8937 41.6307 41.7138 41.6326 41.5321Z" fill="#131313"/>
<path d="M41.5559 65.8123L53.845 58.5689C56.1913 57.1842 58.5363 55.7981 60.8799 54.4107L61.0923 54.2941C61.1133 54.4853 60.9813 54.5867 60.901 54.6976C55.5454 62.2477 50.1899 69.7952 44.8343 77.3402C43.8206 78.7709 42.8087 80.2092 41.7854 81.6284C41.7319 81.703 41.6496 82.0531 41.4851 81.682C41.6152 81.5711 41.5578 81.4219 41.5578 81.2995C41.5591 76.1352 41.5585 70.9728 41.5559 65.8123Z" fill="#2F3030"/>
<path d="M41.5549 65.8133C41.5549 70.9738 41.5549 76.133 41.5549 81.2909C41.5549 81.4228 41.6122 81.572 41.4822 81.6734C41.2087 81.5089 41.0901 81.2143 40.9084 80.9714C34.6985 72.224 28.4917 63.4753 22.2882 54.7254C22.2098 54.6144 22.1371 54.4959 22.0568 54.3734C22.2174 54.2797 22.3035 54.4079 22.3972 54.4633C28.6773 58.1714 34.956 61.8827 41.2335 65.5972C41.3502 65.6698 41.4497 65.7444 41.5549 65.8133Z" fill="#828384"/>
<path d="M41.6021 17.9385L41.5562 17.8677C41.6403 17.8142 41.6289 17.8926 41.6423 17.9327L41.6021 17.9385Z" fill="#393939"/>
</svg>
