<svg width="300" height="100" viewBox="0 0 300 100" fill="none" xmlns="http://www.w3.org/2000/svg">
<path d="M55.526 20.5748C56.9843 19.8084 59.2032 19.8084 60.6614 20.5748L75.5419 28.3945C76.4201 28.856 76.9025 29.5438 76.9889 30.2537H77.0031V69.5599C76.9838 70.3343 76.4969 71.1035 75.5419 71.6055L60.6614 79.4252C59.2032 80.1916 56.9843 80.1916 55.526 79.4252L40.6456 71.6055C39.6946 71.1058 39.2382 70.331 39.2156 69.5599C39.2134 69.484 39.2131 69.4207 39.2152 69.3682L39.2151 30.5062C39.2136 30.4637 39.2135 30.4211 39.2147 30.3788L39.2156 30.2537L39.2223 30.2537C39.2884 29.5359 39.7488 28.8658 40.6456 28.3945L55.526 20.5748ZM74.6605 52.1824L60.6614 59.5391C59.2032 60.3054 56.9843 60.3054 55.526 59.5391L41.5575 52.1988V69.4821L55.526 76.7838C56.3147 77.2033 57.1334 77.6121 57.9339 77.6641L58.0937 77.6693C58.9279 77.6721 59.7377 77.2507 60.5589 76.8518L74.6605 69.4193V52.1824ZM36.7953 68.7054C36.7953 70.211 36.9712 71.201 37.3205 71.8985C37.61 72.4765 38.0444 72.918 38.8375 73.4557L38.8828 73.4861C39.0569 73.6029 39.2486 73.7252 39.482 73.8686L39.7573 74.0365L40.6025 74.5441L39.3902 76.5382L38.4442 75.9696L38.2852 75.8725C38.0117 75.7043 37.785 75.5604 37.5735 75.4183C35.313 73.9019 34.47 72.2491 34.4534 68.8099L34.4531 68.7054H36.7953ZM56.9223 41.6472C56.814 41.6842 56.7124 41.727 56.6198 41.7757L41.7395 49.5955C41.7238 49.6037 41.7089 49.6118 41.6948 49.6198L41.6822 49.6271L41.7055 49.6404L41.7395 49.6587L56.6198 57.4785C56.7124 57.5271 56.814 57.5699 56.9223 57.6069V41.6472ZM59.2652 41.6472V57.6069C59.3735 57.5699 59.475 57.5271 59.5676 57.4785L74.448 49.6587C74.4636 49.6505 74.4785 49.6424 74.4927 49.6344L74.5053 49.6271L74.4819 49.6138L74.448 49.5955L59.5676 41.7757C59.475 41.727 59.3735 41.6842 59.2652 41.6472ZM74.6605 33.042L61.312 40.0568L74.6605 47.0717V33.042ZM41.5575 33.0584V47.0553L54.8751 40.0568L41.5575 33.0584ZM59.5676 22.6354C58.7938 22.2287 57.3937 22.2287 56.6198 22.6354L41.7395 30.4552C41.7238 30.4634 41.7089 30.4715 41.6948 30.4795L41.6822 30.4868L41.7055 30.5001L41.7395 30.5184L56.6198 38.3382C57.3937 38.7448 58.7938 38.7448 59.5676 38.3382L74.448 30.5184C74.4636 30.5102 74.4785 30.5021 74.4927 30.494L74.5053 30.4868L74.4819 30.4734L74.448 30.4552L59.5676 22.6354ZM76.8597 23.4929L77.8057 24.0614L77.9647 24.1585C78.2382 24.3265 78.4649 24.4708 78.6764 24.6126C80.9369 26.1289 81.7799 27.782 81.7963 31.221L81.7968 31.3257H79.4546C79.4546 29.8197 79.2787 28.8299 78.9294 28.1326C78.6399 27.5546 78.2055 27.1129 77.4124 26.5754L77.3671 26.5449C77.1931 26.4281 77.0013 26.3058 76.7679 26.1621L76.4926 25.9944L75.6474 25.4869L76.8597 23.4929Z" fill="#1969FF"/>
<path d="M105.59 67.9212V46.0008H111.669V41.9873H105.59V39.1057C105.59 35.8469 107.016 34.2175 109.866 34.2175C110.69 34.2175 111.567 34.3547 112.494 34.6291V30.3583C111.36 30.0152 110.107 29.8437 108.733 29.8437C106.089 29.8437 104.037 30.5984 102.577 32.1078C101.117 33.6172 100.387 35.8126 100.387 38.6941V41.9873H95.3905V46.0008H100.387V67.9212H105.59ZM126.712 68.2812C128.704 68.2812 130.447 67.8696 131.941 67.046C133.435 66.2229 134.56 65.0394 135.315 63.4958V67.9212H140.467V41.9873H135.315V46.2066C134.525 44.663 133.392 43.4709 131.915 42.6305C130.438 41.79 128.704 41.3698 126.712 41.3698C124.48 41.3698 122.487 41.9358 120.736 43.0678C118.985 44.1999 117.62 45.795 116.641 47.8532C115.662 49.9114 115.173 52.2784 115.173 54.9541C115.173 57.6298 115.653 59.9711 116.615 61.9778C117.576 63.9846 118.925 65.5369 120.659 66.6346C122.393 67.7322 124.411 68.2812 126.712 68.2812ZM127.948 64.1647C125.578 64.1647 123.732 63.3585 122.411 61.7463C121.088 60.134 120.427 57.87 120.427 54.9541C120.427 52.004 121.088 49.6971 122.411 48.0333C123.732 46.3696 125.562 45.5377 127.897 45.5377C130.266 45.5377 132.095 46.3439 133.383 47.9561C134.671 49.5684 135.315 51.8668 135.315 54.8512C135.315 57.8013 134.671 60.0911 133.383 61.7205C132.095 63.35 130.284 64.1647 127.948 64.1647ZM153.243 67.9212V53.1532C153.243 50.8548 153.904 49.0196 155.226 47.6474C156.548 46.2753 158.308 45.5892 160.506 45.5892C162.43 45.5892 163.829 46.1037 164.705 47.1328C165.581 48.162 166.018 49.8085 166.018 52.0726V67.9212H171.221V51.7639C171.221 44.8345 168.113 41.3698 161.897 41.3698C159.905 41.3698 158.128 41.8072 156.565 42.6819C155.003 43.5567 153.809 44.8174 152.985 46.4639L152.521 41.9873H147.679C147.954 44.1484 148.091 46.584 148.091 49.294V67.9212H153.243ZM188.634 68.2812C190.076 68.2812 191.364 68.0927 192.497 67.7154V63.4958C191.57 63.7702 190.66 63.9074 189.767 63.9074C188.393 63.9074 187.32 63.5386 186.547 62.8011C185.775 62.0636 185.388 60.8029 185.388 59.0191V46.0008H192.549V41.9873H185.388V33.7029L180.185 35.5039V41.9873H175.136V46.0008H180.185V59.4307C180.185 62.3123 180.924 64.5077 182.4 66.0171C183.877 67.5265 185.955 68.2812 188.634 68.2812ZM208.519 68.2812C211.026 68.2812 213.241 67.7322 215.164 66.6346C217.088 65.5369 218.573 63.976 219.62 61.9521C220.668 59.9282 221.191 57.5612 221.191 54.8512C221.191 52.1412 220.668 49.7657 219.62 47.7246C218.573 45.6835 217.088 44.1141 215.164 43.0164C213.241 41.9187 211.026 41.3698 208.519 41.3698C205.977 41.3698 203.745 41.9187 201.822 43.0164C199.899 44.1141 198.413 45.6835 197.365 47.7246C196.318 49.7657 195.794 52.1412 195.794 54.8512C195.794 57.5612 196.318 59.9282 197.365 61.9521C198.413 63.976 199.899 65.5369 201.822 66.6346C203.745 67.7322 205.977 68.2812 208.519 68.2812ZM208.467 64.1647C206.097 64.1647 204.269 63.3757 202.981 61.7977C201.693 60.2197 201.049 57.9043 201.049 54.8512C201.049 51.8668 201.701 49.5684 203.006 47.9561C204.311 46.3439 206.149 45.5377 208.519 45.5377C210.854 45.5377 212.666 46.3439 213.954 47.9561C215.242 49.5684 215.885 51.8668 215.885 54.8512C215.885 57.9043 215.25 60.2197 213.979 61.7977C212.709 63.3757 210.871 64.1647 208.467 64.1647ZM232.422 67.9212V53.2561C232.422 50.8891 233.006 49.0196 234.174 47.6474C235.341 46.2753 236.921 45.5892 238.913 45.5892C240.63 45.5892 241.875 46.1037 242.648 47.1328C243.421 48.162 243.807 49.7914 243.807 52.0211V67.9212H249.01V53.2561C249.01 50.8891 249.585 49.0196 250.736 47.6474C251.886 46.2753 253.457 45.5892 255.45 45.5892C257.167 45.5892 258.412 46.1037 259.184 47.1328C259.957 48.162 260.343 49.7914 260.343 52.0211V67.9212H265.546V51.7639C265.546 44.8345 262.662 41.3698 256.892 41.3698C254.969 41.3698 253.243 41.8158 251.715 42.7077C250.186 43.5995 249.027 44.8174 248.237 46.361C247.001 43.0335 244.373 41.3698 240.355 41.3698C238.466 41.3698 236.818 41.7986 235.41 42.6562C234.001 43.5138 232.92 44.7316 232.164 46.3096L231.701 41.9873H226.858C227.133 44.1484 227.27 46.584 227.27 49.294V67.9212H232.422Z" fill="#1969FF"/>
</svg>
