<svg width="300" height="100" viewBox="0 0 300 100" fill="none" xmlns="http://www.w3.org/2000/svg">
<path fill-rule="evenodd" clip-rule="evenodd" d="M73.9999 20C57.4328 20 44 33.4328 44 50C44 66.5672 57.4328 80 73.9999 80C90.5672 80 104 66.5672 104 50C103.965 33.4328 90.5672 20 73.9999 20ZM74.4479 50.9644L71.348 61.504H88.0183C88.6039 61.504 88.9827 62.0551 88.8451 62.6062L87.3984 67.6005C87.2605 68.0827 86.8128 68.4271 86.2962 68.4271H60.8082L65.1136 53.8576L60.3605 55.3387L61.3938 51.8944L66.1815 50.4133L72.2434 29.9541C72.3813 29.4719 72.829 29.1274 73.3456 29.1274H79.7866C80.3719 29.1274 80.7509 29.6785 80.613 30.2296L75.4812 47.5201L80.2343 46.039L79.201 49.5178L74.4479 50.9644Z" fill="#345D9D"/>
<path d="M121.325 29.093H119.465C119.12 29.093 118.879 29.2997 118.81 29.6441L113.988 67.8416C113.954 68.2204 114.057 68.3927 114.436 68.3927H116.296C116.675 68.3927 116.882 68.2204 116.951 67.8416L121.807 29.6441C121.91 29.2652 121.704 29.093 121.325 29.093Z" fill="#345D9D"/>
<path d="M129.213 40.1148H131.072C131.451 40.1148 131.589 40.3215 131.555 40.7003L128.145 67.876C128.076 68.2549 127.835 68.4271 127.49 68.4271H125.63C125.286 68.4271 125.079 68.2549 125.114 67.876L128.558 40.6659C128.627 40.287 128.868 40.1148 129.213 40.1148Z" fill="#345D9D"/>
<path fill-rule="evenodd" clip-rule="evenodd" d="M212.565 39.6671C209.981 39.6671 207.743 40.3904 205.848 41.8714C203.954 43.3525 202.714 45.2813 202.094 47.6923C201.578 49.6556 201.129 52.411 200.923 54.271L200.874 54.7187L200.873 54.7265C200.619 57.0373 200.406 58.9738 200.406 60.8496C200.441 63.2951 201.233 65.2239 202.714 66.7049C204.229 68.1516 206.296 68.9093 208.914 68.9093C211.462 68.9093 213.701 68.186 215.596 66.7049C217.49 65.2583 218.73 63.2951 219.35 60.8496C219.763 59.2308 220.177 57.0609 220.521 54.271C220.866 51.3777 221.038 49.1734 221.038 47.6579C221.038 45.2468 220.28 43.318 218.764 41.8714C217.215 40.3904 215.148 39.6671 212.565 39.6671ZM217.8 51.6188C217.628 52.9966 217.525 53.8921 217.49 54.271C217.146 57.0953 216.836 59.093 216.56 60.2985C216.147 62.0896 215.251 63.5362 213.908 64.6384C212.565 65.7405 210.98 66.2572 209.224 66.2572C207.433 66.2572 206.02 65.7061 204.953 64.6384C203.885 63.5706 203.368 62.1584 203.368 60.4018C203.368 59.4719 203.472 58.3008 203.644 56.9231C203.816 55.5454 203.92 54.6498 203.954 54.271C204.298 51.5844 204.608 49.5867 204.884 48.2434C205.297 46.4524 206.193 45.0057 207.536 43.9036C208.879 42.8014 210.464 42.2847 212.22 42.2847C214.011 42.2847 215.423 42.8358 216.491 43.8691C217.559 44.9369 218.076 46.349 218.076 48.1056C218.076 49.1045 217.972 50.2411 217.8 51.6188Z" fill="#345D9D"/>
<path d="M229.821 40.1148H231.646C232.025 40.1148 232.163 40.3215 232.129 40.7003L228.719 67.876C228.65 68.2549 228.409 68.4271 228.064 68.4271H226.204C225.86 68.4271 225.653 68.2549 225.688 67.876L229.166 40.6659C229.235 40.3215 229.476 40.1148 229.821 40.1148Z" fill="#345D9D"/>
<path d="M255.137 41.7336C253.862 40.3904 252.071 39.7359 249.729 39.7359C248.213 39.7359 246.836 40.0115 245.562 40.597C244.287 41.1825 243.219 42.0436 242.324 43.2147C242.152 43.3525 242.083 43.318 242.083 43.1114L242.358 40.7003C242.393 40.3559 242.255 40.1493 241.91 40.1493H240.051C239.706 40.1493 239.465 40.3559 239.396 40.7003L235.986 67.876C235.952 68.2204 236.055 68.4271 236.434 68.4271H238.294C238.638 68.4271 238.879 68.2204 238.914 67.876L241.394 48.3812C241.807 46.5557 242.668 45.0746 243.943 44.0069C245.217 42.9392 246.732 42.3881 248.523 42.3881C250.177 42.3881 251.485 42.9047 252.45 43.938C253.414 44.9713 253.896 46.349 253.896 48.1056C253.896 48.6223 253.862 49.0356 253.828 49.3456L251.451 67.876C251.451 68.0482 251.451 68.1516 251.52 68.2549C251.623 68.3582 251.761 68.4271 251.968 68.4271H253.828C254.172 68.4271 254.413 68.2549 254.448 67.876L256.824 48.8978C256.893 48.1401 256.928 47.589 256.928 47.2101C257.031 44.868 256.411 43.0425 255.137 41.7336Z" fill="#345D9D"/>
<path d="M129.213 30.0918C129.764 28.9552 131.176 28.5419 132.278 29.1274C133.414 29.713 133.828 31.0907 133.242 32.2273C132.657 33.3295 131.279 33.7773 130.177 33.1917C129.075 32.6062 128.627 31.194 129.213 30.0918Z" fill="#345D9D"/>
<path d="M232.99 29.1274C231.888 28.5419 230.475 28.9552 229.925 30.0918C229.339 31.194 229.787 32.6062 230.889 33.1917C231.991 33.7773 233.403 33.3295 233.989 32.2273C234.54 31.0907 234.092 29.713 232.99 29.1274Z" fill="#345D9D"/>
<path d="M181.6 41.8714C183.495 40.4248 185.734 39.6671 188.317 39.6671C190.935 39.6671 192.967 40.3904 194.517 41.8025C196.032 43.2491 196.79 45.178 196.79 47.589V48.2434C196.79 48.4501 196.618 48.5878 196.446 48.5878H194.275C194.035 48.5878 193.828 48.3812 193.828 48.1401V48.1056C193.828 46.349 193.311 44.9369 192.244 43.8691C191.176 42.8014 189.729 42.2847 187.972 42.2847C186.216 42.2847 184.631 42.8014 183.288 43.9036C181.945 45.0057 181.05 46.4524 180.636 48.2434C180.361 49.5867 180.051 51.5844 179.706 54.271C179.683 54.5217 179.615 55.0893 179.532 55.784C179.489 56.139 179.443 56.5271 179.396 56.9231C179.224 58.3008 179.12 59.4719 179.12 60.4018C179.12 62.1584 179.637 63.5706 180.705 64.6384C181.773 65.7061 183.185 66.2572 184.976 66.2572C186.733 66.2572 188.317 65.7405 189.66 64.6384C191.003 63.5362 191.899 62.0896 192.312 60.2985C192.312 60.2985 192.347 60.2296 192.347 60.1952C192.381 59.9885 192.553 59.9196 192.691 59.9196H194.999C195.137 59.9196 195.274 60.0574 195.24 60.2296C195.234 60.2649 195.227 60.3002 195.22 60.3355C195.212 60.3727 195.203 60.4099 195.194 60.4471L195.171 60.5381L195.147 60.6356C195.13 60.7069 195.114 60.7783 195.102 60.8496C194.482 63.2951 193.242 65.2583 191.348 66.7049C189.453 68.186 187.215 68.9093 184.666 68.9093C182.048 68.9093 179.982 68.1516 178.466 66.7049C176.985 65.2239 176.193 63.2951 176.159 60.8496C176.159 58.9774 176.401 56.7724 176.63 54.6882V54.6812L176.675 54.271C176.847 52.7555 177.33 49.6556 177.846 47.6923C178.466 45.2813 179.706 43.3525 181.6 41.8714Z" fill="#345D9D"/>
<path fill-rule="evenodd" clip-rule="evenodd" d="M169.614 41.8714C168.099 40.4248 166.032 39.6671 163.449 39.6671C160.866 39.6671 158.627 40.3904 156.732 41.8714C154.838 43.3525 153.598 45.2813 152.978 47.6923C152.488 49.5562 152.245 51.2338 151.869 53.8452L151.807 54.271C151.428 57.0953 151.29 58.8519 151.29 60.8496C151.325 63.2951 152.117 65.2239 153.598 66.7049C155.114 68.1516 157.18 68.9093 159.798 68.9093C162.347 68.9093 164.585 68.186 166.48 66.7049C168.374 65.2583 169.614 63.2951 170.234 60.8496C170.251 60.7458 170.277 60.6419 170.303 60.5381C170.318 60.4798 170.333 60.4214 170.346 60.3631C170.356 60.3186 170.365 60.2741 170.372 60.2296C170.406 60.0574 170.303 59.9196 170.131 59.9196H167.823C167.685 59.9196 167.513 59.9885 167.479 60.1952C167.479 60.2296 167.444 60.2985 167.444 60.2985C167.031 62.0896 166.135 63.5362 164.792 64.6384C163.449 65.7405 161.865 66.2572 160.108 66.2572C158.317 66.2572 156.905 65.7061 155.837 64.6384C154.769 63.5706 154.252 62.1584 154.252 60.4018C154.252 59.5752 154.321 58.5419 154.459 57.3708L171.199 52.1699C171.543 52.0666 171.681 51.8944 171.75 51.4811C171.853 50.62 171.922 49.1389 171.922 47.6234C171.887 45.4535 171.13 43.318 169.614 41.8714ZM168.96 49.69C168.96 49.8622 168.856 50 168.684 50.0344L154.804 54.3398V54.271C155.148 51.5844 155.458 49.5867 155.734 48.2434C156.147 46.4524 157.043 45.0057 158.386 43.9036C159.729 42.8014 161.313 42.2847 163.07 42.2847C164.861 42.2847 166.273 42.8358 167.341 43.8691C169.029 45.6257 169.063 47.4168 168.96 49.69Z" fill="#345D9D"/>
<path d="M145.573 65.8783C145.642 65.4994 145.263 65.2583 144.918 65.4305C143.747 65.9816 141.474 66.5327 140.303 65.5683C139.452 64.7502 139.628 63.2792 139.824 61.6278L139.855 61.3662L141.888 45.0057H147.674C147.812 45.0057 148.018 44.9713 148.122 44.868C148.225 44.7302 148.26 44.6269 148.294 44.4202L148.466 43.1114C148.466 42.7669 148.328 42.5603 147.984 42.5603H142.163L143.231 33.5362C143.3 33.2262 143.196 32.9851 142.783 32.9851H140.992C140.613 32.9851 140.372 33.1573 140.338 33.5362L139.511 39.8737L139.166 42.7325L136.721 62.6751C136.411 65.2928 136.962 67.3938 139.097 68.3582C140.958 69.1848 143.265 68.9093 144.918 68.2893C145.125 68.186 145.297 67.9793 145.332 67.7382L145.573 65.8783Z" fill="#345D9D"/>
<path d="M74.4479 50.9644L71.348 61.504H88.0183C88.6039 61.504 88.9827 62.0551 88.8451 62.6062L87.3984 67.6005C87.2605 68.0827 86.8128 68.4271 86.2962 68.4271H60.8082L65.1136 53.8576L60.3605 55.3387L61.3938 51.8944L66.1815 50.4133L72.2434 29.9541C72.3813 29.4719 72.829 29.1274 73.3456 29.1274H79.7866C80.3719 29.1274 80.7509 29.6785 80.613 30.2296L75.4812 47.5201L80.2343 46.039L79.201 49.5178L74.4479 50.9644Z" fill="white"/>
</svg>
