<svg width="300" height="100" viewBox="0 0 300 100" fill="none" xmlns="http://www.w3.org/2000/svg">
<path d="M75.1591 23.0462C76.3229 21.1521 78.3862 20 80.6084 20C84.1401 20 87.0017 22.8615 87.0017 26.3915V73.612C86.9983 77.1419 84.1351 80.0017 80.6051 80H79.301C77.4223 79.9983 75.6375 79.1709 74.4222 77.7368L37.1095 33.0581C37.0154 32.9436 36.8735 32.8786 36.7266 32.8786C36.4495 32.8786 36.2258 33.1009 36.2258 33.3778V66.9111C36.2241 67.0359 36.2685 67.1573 36.3523 67.2513C36.5366 67.4564 36.8531 67.4752 37.0581 67.2906L49.4035 56.5829C49.8566 56.1932 50.5146 56.1521 51.0121 56.4838C51.6257 56.8923 51.7913 57.7197 51.383 58.3333L38.8409 76.9538C37.6771 78.8479 35.6138 80 33.3916 80C29.8616 80 27 77.1385 27 73.6085V26.3915C27 22.8615 29.8616 20 33.3916 20H34.6956C36.5743 20.0017 38.3588 20.8291 39.5745 22.2632L76.8922 66.9333C76.9863 67.0479 77.1265 67.1128 77.2751 67.1128C77.5522 67.1128 77.7759 66.8906 77.7759 66.6137V33.0889C77.7759 32.9641 77.7315 32.8427 77.6477 32.7487C77.4634 32.5436 77.1469 32.5248 76.9419 32.7094L64.5965 43.4171C64.1434 43.8068 63.4854 43.8479 62.9879 43.5162C62.3743 43.1077 62.2087 42.2803 62.617 41.6667L75.1591 23.0462Z" fill="#000008"/>
<path d="M198.404 42.3077C198.404 34.3692 207.334 28.3333 217.67 28.3333L217.667 28.3316C229.245 28.3316 236.108 34.6991 236.108 44.2906V69.347C236.108 70.0906 235.528 70.6701 234.785 70.6701H228.831C228.086 70.6701 227.756 69.9265 228.169 69.347L230.65 65.4598C231.064 64.8821 231.229 64.1367 230.733 63.641C230.156 63.0615 229.494 63.0615 228.833 63.641L224.78 67.1145C222.051 69.4291 217.668 71.4137 212.542 71.4137C204.521 71.4137 197.492 67.5282 197.492 60.0855V58.9282C197.492 51.6513 205.349 46.6906 213.121 46.6906H222.299C222.963 46.6906 223.706 47.0222 223.788 47.6838C223.954 48.5094 223.622 49.2547 222.713 49.5026L213.865 51.9009C207.747 53.306 206.258 55.7043 206.258 58.5162C206.258 61.7419 209.318 63.7265 214.611 63.7265C221.392 63.7265 226.85 60.0051 226.85 52.6462V45.4513C226.85 39.4974 223.045 36.0239 217.422 36.0239C212.709 36.0239 208.327 38.6701 207.665 42.3077C207.581 42.9692 207.085 43.465 206.424 43.465H199.727C198.983 43.465 198.404 42.9692 198.404 42.3077Z" fill="#000008"/>
<path d="M171.53 28.3333C158.713 28.3333 150.527 36.1897 150.527 46.8564V52.7282C150.527 63.9744 158.713 71.665 171.53 71.665C182.858 71.665 190.797 65.7932 191.624 57.8547C191.708 57.0274 191.128 56.4496 190.301 56.4496H183.851C183.272 56.4496 182.776 56.7812 182.61 57.359C181.783 60.0051 177.897 63.9744 171.53 63.9744C165.162 63.9744 159.209 59.3436 159.291 52.7282L159.374 45.3692C159.457 39.8291 165.246 36.0256 171.53 36.0256C177.236 36.0256 182.776 39.2513 183.354 44.5436C183.402 45.1556 182.981 45.7077 182.378 45.8239L163.838 49.4222C163.094 49.588 162.515 50.2496 162.515 51.0752V51.1573C162.515 51.9009 163.258 52.5624 164.333 52.5624H190.961C191.693 52.5624 192.284 51.9692 192.284 51.2393V46.0308C192.284 36.1915 183.766 28.335 171.528 28.335L171.53 28.3333Z" fill="#000008"/>
<path d="M128.781 28.4991C124.233 28.4991 120.925 29.5744 118.114 32.0547L113.152 36.3538C112.739 36.6855 111.911 36.9333 111.333 36.4359C110.754 35.9402 110.672 35.2786 111.168 34.6171L113.814 30.6479C114.227 30.0684 113.897 29.3248 113.152 29.3248H106.785C106.041 29.3248 105.462 29.9043 105.462 30.6479V69.3487C105.462 70.0923 106.041 70.6718 106.785 70.6718H113.4C114.143 70.6718 114.723 70.0923 114.723 69.3487V47.5179C114.723 37.5128 123.075 35.9419 126.217 35.9419C132.914 35.9419 135.313 40.7385 135.313 44.3761V69.3487C135.313 70.0923 135.892 70.6718 136.636 70.6718H143.251C143.995 70.6718 144.574 70.0923 144.574 69.3487V43.5487C144.574 34.2872 138.537 28.4991 128.781 28.4991Z" fill="#000008"/>
<path d="M271.831 29.3265H262.569C259.345 29.3265 256.202 31.3111 253.969 33.2137L250.332 36.3556C249.918 36.6872 249.173 36.935 248.677 36.5214C248.097 36.1077 247.85 35.2803 248.347 34.6188L250.993 30.6496C251.407 30.0701 251.077 29.3265 250.332 29.3265H244.13C243.387 29.3265 242.807 29.906 242.807 30.6496V69.3504C242.807 70.094 243.387 70.6735 244.13 70.6735H250.911C251.655 70.6735 252.234 70.094 252.234 69.3504V49.5043C252.234 40.9863 255.708 37.1829 263.233 37.1829H271.833C272.576 37.1829 273.156 36.6034 273.156 35.8598V30.6496C273.156 29.906 272.576 29.3265 271.831 29.3265Z" fill="#000008"/>
</svg>
