<svg width="300" height="100" viewBox="0 0 300 100" fill="none" xmlns="http://www.w3.org/2000/svg">
<path d="M110.816 37.4334C112.838 37.382 114.841 37.8385 116.641 38.7613C118.246 39.6119 119.563 40.9177 120.428 42.5147C121.34 44.2424 121.797 46.174 121.756 48.1272C121.745 49.1132 121.651 50.0964 121.473 51.0662C121.112 53.3024 120.247 55.427 118.943 57.2787C117.684 59.0597 116.014 60.5106 114.074 61.5082C112.07 62.5347 109.846 63.058 107.594 63.0328C105.555 63.0853 103.535 62.629 101.716 61.7049C100.11 60.8639 98.791 59.5624 97.929 57.9672C97.0269 56.2442 96.5755 54.3209 96.6169 52.3764C96.6251 51.3669 96.7199 50.3599 96.9002 49.3666C97.2607 47.1295 98.1266 45.0042 99.432 43.1521C100.692 41.3692 102.37 39.9224 104.319 38.9384C106.333 37.9248 108.561 37.4088 110.816 37.4334ZM110.427 42.0367C108.353 42.008 106.348 42.7819 104.832 44.1967C103.196 45.7375 102.124 47.7822 101.787 50.0039C101.679 50.6597 101.62 51.3225 101.61 51.9869C101.61 53.9698 102.176 55.5338 103.309 56.6787C104.442 57.8236 106 58.3961 107.982 58.3961C109.353 58.4073 110.705 58.0724 111.912 57.4223C113.136 56.7547 114.181 55.801 114.957 54.6426C115.808 53.377 116.364 51.9373 116.586 50.4288C116.711 49.7641 116.77 49.0888 116.763 48.4125C116.763 46.4295 116.197 44.8721 115.063 43.7403C113.93 42.6085 112.385 42.0406 110.427 42.0367ZM138.79 42.922C140.962 42.922 142.691 43.5941 143.978 44.9384C145.264 46.2826 145.907 48.1475 145.907 50.5331C145.904 51.352 145.833 52.1692 145.695 52.9764C145.373 54.8893 144.662 56.7159 143.606 58.3429C142.669 59.7919 141.392 60.9895 139.886 61.8308C138.457 62.6237 136.848 63.0375 135.214 63.0328C133.779 63.0992 132.363 62.6814 131.195 61.8465C130.176 61.0707 129.486 59.9401 129.263 58.6793L126.892 72.1351H121.9L127.001 43.1698H131.991L131.248 47.242C131.969 45.9309 133.034 44.8413 134.328 44.0905C135.682 43.303 137.224 42.8991 138.79 42.922ZM134.435 58.6439C135.911 58.6659 137.34 58.1282 138.436 57.139C139.62 56.0423 140.394 54.5746 140.631 52.9784C140.698 52.5329 140.734 52.0832 140.738 51.6328C140.775 51.0456 140.693 50.4569 140.495 49.9028C140.297 49.3487 139.988 48.8409 139.587 48.4105C139.161 48.0196 138.661 47.7181 138.117 47.5238C137.572 47.3295 136.995 47.2464 136.418 47.2793C134.937 47.2677 133.507 47.8182 132.416 48.8197C131.225 49.9106 130.449 51.3811 130.221 52.9803C130.152 53.4018 130.117 53.828 130.115 54.2551C130.082 54.8444 130.17 55.4343 130.374 55.9882C130.578 56.5421 130.894 57.0482 131.301 57.4754C131.718 57.8709 132.21 58.1783 132.749 58.3791C133.287 58.5798 133.861 58.6699 134.435 58.6439ZM154.335 55.9508C154.282 56.2308 154.258 56.5157 154.264 56.8007C154.236 57.0454 154.267 57.2933 154.353 57.524C154.439 57.7548 154.578 57.9619 154.76 58.1285C155.251 58.4176 155.82 58.5475 156.389 58.5003H158.336L157.557 62.7869H154.935C153.07 62.7869 151.642 62.4098 150.65 61.6557C149.659 60.9016 149.163 59.6623 149.163 57.9377C149.169 57.2479 149.24 56.5602 149.376 55.8839L150.863 47.3856H148.138L148.882 43.1718H151.608L152.458 38.3206H157.486L156.637 43.1718H160.957L160.213 47.3856H155.858L154.335 55.9508ZM165.383 38.0334C165.374 37.5979 165.462 37.1658 165.639 36.768C165.817 36.3702 166.08 36.0164 166.41 35.7318C167.123 35.1074 168.047 34.7782 168.995 34.8111C169.682 34.7719 170.358 34.9932 170.889 35.4308C171.115 35.6325 171.294 35.8813 171.413 36.1598C171.532 36.4382 171.588 36.7394 171.578 37.042C171.588 37.4735 171.503 37.9019 171.328 38.2967C171.154 38.6915 170.894 39.0429 170.568 39.3259C169.858 39.9416 168.941 40.2644 168.001 40.2288C167.306 40.2715 166.619 40.0573 166.071 39.6269C165.845 39.4298 165.666 39.1846 165.547 38.9092C165.428 38.6338 165.372 38.3352 165.383 38.0354V38.0334ZM169.986 43.1679L166.516 62.7869H161.525L164.995 43.1698L169.986 43.1679ZM199.518 42.8846C201.548 42.8846 203.124 43.4334 204.245 44.5311C205.367 45.6288 205.927 47.2046 205.927 49.2584C205.931 49.9704 205.872 50.6813 205.75 51.3829L203.732 62.7869H198.739L200.687 51.9515C200.755 51.5538 200.79 51.1511 200.793 50.7475C200.825 50.2709 200.756 49.793 200.591 49.3446C200.427 48.8963 200.169 48.4875 199.837 48.1449C199.103 47.5084 198.15 47.1842 197.181 47.242C195.891 47.2051 194.633 47.6537 193.658 48.499C192.625 49.4818 191.957 50.7867 191.763 52.1993L189.887 62.7869H184.894L186.841 51.9515C186.91 51.5538 186.945 51.1511 186.947 50.7475C186.979 50.2709 186.911 49.793 186.746 49.3446C186.581 48.8963 186.324 48.4875 185.991 48.1449C185.258 47.5084 184.305 47.1842 183.336 47.242C182.026 47.2112 180.754 47.6795 179.777 48.5521C178.723 49.57 178.054 50.9212 177.883 52.3764V52.1993L176.041 62.7869H171.013L174.483 43.1698H179.476L178.837 46.8525C179.54 45.6293 180.562 44.6198 181.793 43.9311C183.042 43.2323 184.452 42.8721 185.883 42.8866C187.281 42.8315 188.659 43.2282 189.814 44.0177C190.878 44.8122 191.609 45.9728 191.867 47.2754C192.697 45.9498 193.84 44.8491 195.196 44.0708C196.505 43.2969 197.997 42.888 199.518 42.8866V42.8846ZM211.947 38.0334C211.938 37.5979 212.026 37.1658 212.203 36.768C212.381 36.3702 212.644 36.0164 212.974 35.7318C213.687 35.1074 214.611 34.7782 215.559 34.8111C216.246 34.7719 216.922 34.9932 217.453 35.4308C217.679 35.6325 217.858 35.8813 217.977 36.1598C218.096 36.4382 218.152 36.7394 218.142 37.042C218.152 37.4735 218.067 37.9019 217.892 38.2967C217.718 38.6915 217.458 39.0429 217.132 39.3259C216.422 39.9416 215.505 40.2644 214.565 40.2288C213.87 40.2715 213.183 40.0573 212.635 39.6269C212.409 39.4298 212.23 39.1846 212.111 38.9092C211.992 38.6338 211.936 38.3352 211.947 38.0354V38.0334ZM216.55 43.1679L213.08 62.7869H208.087L211.557 43.1698L216.55 43.1679ZM226.927 42.922C229.571 42.922 231.584 43.518 232.965 44.7102C233.655 45.315 234.212 46.0573 234.599 46.8896C234.986 47.7219 235.195 48.6258 235.213 49.5436H230.327C230.335 49.1106 230.248 48.6811 230.07 48.2861C229.893 47.8911 229.629 47.5405 229.3 47.2597C228.495 46.6592 227.504 46.3642 226.502 46.4275C225.731 46.3915 224.968 46.6024 224.325 47.0295C224.06 47.2095 223.846 47.453 223.701 47.7377C223.555 48.0223 223.484 48.3389 223.492 48.6584C223.489 48.9885 223.583 49.3122 223.762 49.5893C223.942 49.8664 224.199 50.0845 224.502 50.2164C225.505 50.6896 226.556 51.0574 227.635 51.3141C228.771 51.6346 229.887 52.0188 230.98 52.4649C231.835 52.8265 232.598 53.3773 233.21 54.0761C233.862 54.8583 234.197 55.8564 234.149 56.8734C234.148 57.3257 234.101 57.7766 234.007 58.219C233.863 58.9373 233.571 59.6178 233.15 60.2177C232.73 60.8177 232.19 61.324 231.564 61.7049C230.218 62.5902 228.424 63.0328 226.182 63.0328C223.609 63.0328 221.548 62.4492 220.001 61.282C219.244 60.7184 218.633 59.9829 218.217 59.1362C217.802 58.2896 217.594 57.3561 217.61 56.4131H222.497C222.449 56.8465 222.517 57.2848 222.694 57.6832C222.871 58.0815 223.152 58.4253 223.506 58.6793C224.418 59.2952 225.506 59.5938 226.605 59.5292C227.378 59.582 228.145 59.3551 228.765 58.8898C229.004 58.6923 229.195 58.4431 229.324 58.1609C229.452 57.8788 229.516 57.5711 229.508 57.261C229.514 57.0188 229.469 56.7782 229.374 56.5552C229.279 56.3323 229.138 56.1322 228.959 55.9685C228.564 55.6085 228.1 55.3315 227.596 55.1541C227.053 54.9534 226.274 54.7115 225.259 54.4282C224.153 54.1302 223.066 53.769 222.001 53.3462C221.181 53.0083 220.453 52.4804 219.877 51.8059C219.261 51.048 218.946 50.0901 218.991 49.1147C218.994 48.6877 219.029 48.2615 219.098 47.84C219.231 47.1105 219.516 46.4172 219.934 45.8048C220.352 45.1924 220.894 44.6747 221.525 44.2852C222.883 43.3764 224.683 42.922 226.925 42.922H226.927ZM264.957 42.8866C266.988 42.8866 268.563 43.4354 269.685 44.5331C270.806 45.6308 271.367 47.2066 271.367 49.2603C271.37 49.9724 271.311 50.6833 271.19 51.3849L269.169 62.7869H264.176L266.124 51.9515C266.192 51.5538 266.228 51.1511 266.23 50.7475C266.262 50.2709 266.193 49.793 266.029 49.3446C265.864 48.8963 265.607 48.4875 265.274 48.1449C264.541 47.5084 263.588 47.1842 262.618 47.242C261.328 47.2051 260.071 47.6537 259.095 48.499C258.062 49.4818 257.394 50.7867 257.201 52.1993L255.324 62.7869H250.331L252.279 51.9515C252.347 51.5538 252.383 51.1511 252.385 50.7475C252.417 50.2709 252.348 49.793 252.183 49.3446C252.019 48.8963 251.762 48.4875 251.429 48.1449C250.696 47.5084 249.742 47.1842 248.773 47.242C247.464 47.2112 246.191 47.6795 245.214 48.5521C244.16 49.57 243.491 50.9212 243.32 52.3764V52.1993L241.479 62.7869H236.45L239.919 43.1698H244.911L244.272 46.8525C244.976 45.6293 245.997 44.6198 247.229 43.9311C248.478 43.2323 249.888 42.8721 251.319 42.8866C252.716 42.8315 254.095 43.2282 255.249 44.0177C256.313 44.8122 257.045 45.9728 257.303 47.2754C258.132 45.9498 259.275 44.8491 260.631 44.0708C261.941 43.2966 263.434 42.8876 264.955 42.8866H264.957Z" fill="#000008"/>
<path d="M58 80C74.5686 80 88.0001 66.5685 88.0001 50C88.0001 33.4315 74.5686 20 58 20C41.4315 20 28 33.4315 28 50C28 66.5685 41.4315 80 58 80Z" fill="#FF0420"/>
<path fill-rule="evenodd" clip-rule="evenodd" d="M44.8575 56.6954C46.1456 57.5801 47.6854 58.0225 49.2463 57.9559C51.4076 57.9559 53.1318 57.4533 54.4218 56.448C55.7128 55.4277 56.6205 53.8898 57.145 51.8344C57.46 50.5741 57.7299 49.2762 57.9547 47.9408C58.0219 47.5466 58.0594 47.148 58.0671 46.7482C58.094 45.7877 57.8193 44.843 57.2804 44.0472C56.7463 43.2749 55.9942 42.6794 55.1201 42.3367C54.1355 41.9332 53.0789 41.734 52.0146 41.7515C47.768 41.7515 45.1351 43.8146 44.115 47.9408C43.7548 49.4546 43.4772 50.7524 43.2822 51.8344C43.214 52.2361 43.1766 52.6423 43.1699 53.0497C43.1343 53.7487 43.2688 54.446 43.5627 55.0813C43.8566 55.7165 44.3014 56.2705 44.8575 56.6954ZM51.7005 53.9723C51.1021 54.4723 50.3413 54.7365 49.5614 54.7149C48.1215 54.7149 47.4011 54.0247 47.4011 52.6444C47.4001 52.467 47.4097 52.2897 47.428 52.1135C47.4424 51.9746 47.4635 51.8364 47.4904 51.6992C47.7603 50.2438 48.0303 49.0134 48.3011 48.0082C48.4711 47.1367 48.912 46.3411 49.5614 45.7351C50.1694 45.2371 50.9359 44.9736 51.7217 44.9925C53.1471 44.9921 53.8599 45.6747 53.8599 47.0403C53.8599 47.3651 53.8301 47.6891 53.7696 48.0082C53.5899 49.059 53.3277 50.2893 52.9829 51.6992C52.8109 52.5753 52.3614 53.3726 51.7005 53.9723Z" fill="white"/>
<path fill-rule="evenodd" clip-rule="evenodd" d="M58.8951 57.6961C58.9614 57.7234 59.0324 57.7353 59.1045 57.7312L62.1658 57.7316C62.2407 57.7305 62.3147 57.7171 62.3838 57.6925C62.4597 57.6658 62.5308 57.626 62.5932 57.5743C62.7239 57.4753 62.8122 57.3304 62.8391 57.169L63.8746 52.2402H66.9128C68.8781 52.2402 70.4237 51.8275 71.5485 51.0023C72.7616 50.0591 73.5733 48.6924 73.8221 47.1761C73.9095 46.792 73.9547 46.3995 73.9575 46.0056C73.9844 45.4166 73.8567 44.8308 73.5887 44.3059C73.3207 43.781 72.9201 43.335 72.4264 43.012C71.2267 42.2686 69.83 41.9076 68.4199 41.9767H62.4338C62.3185 41.9785 62.2071 42.0088 62.1081 42.0641C62.0726 42.0841 62.038 42.1076 62.0054 42.1341C61.8757 42.233 61.7873 42.3779 61.7595 42.5394L58.654 57.1685C58.6223 57.3072 58.6463 57.4528 58.7212 57.5738C58.7606 57.6173 58.8077 57.6531 58.8595 57.6797L58.8951 57.6961ZM68.7148 48.6161C68.2384 48.9646 67.6611 49.1465 67.0713 49.1335H64.4836L65.3385 45.1051H68.0396C68.5035 45.0595 68.9694 45.1877 69.345 45.4651C69.4765 45.592 69.5803 45.7465 69.6466 45.9177C69.7119 46.0889 69.7397 46.2725 69.7273 46.4556C69.7244 46.6822 69.7013 46.9081 69.66 47.1308C69.5409 47.7266 69.2038 48.2565 68.7148 48.6161Z" fill="white"/>
</svg>
