<svg width="300" height="100" viewBox="0 0 300 100" fill="none" xmlns="http://www.w3.org/2000/svg">
<path d="M161.166 22.4785V59.978H167.702V22.4785H161.166Z" fill="#22143D"/>
<path fill-rule="evenodd" clip-rule="evenodd" d="M98.4688 70.6914V32.8714H104.096L104.632 35.9242H104.9C106.507 33.8331 109.24 32.3355 113.044 32.3355C120.006 32.3355 125.58 38.0152 125.58 46.4223C125.58 54.8294 120.011 60.5091 113.044 60.5091C109.292 60.5091 106.67 58.954 105.278 57.1884H105.01V70.6867H98.4735L98.4688 70.6914ZM119.039 46.4271C119.039 41.4986 115.876 38.3932 112.02 38.3932C108.163 38.3932 105 41.4986 105 46.4271C105 51.3556 108.163 54.461 112.02 54.461C115.876 54.461 119.039 51.3556 119.039 46.4271Z" fill="#22143D"/>
<path fill-rule="evenodd" clip-rule="evenodd" d="M128.896 46.4223C128.896 38.2257 134.786 32.3355 142.662 32.3355C150.538 32.3355 156.429 38.2257 156.429 46.4223C156.429 54.6189 150.538 60.5091 142.662 60.5091C134.786 60.5091 128.896 54.5615 128.896 46.4223ZM149.84 46.4223C149.84 41.5991 146.624 38.3884 142.662 38.3884C138.7 38.3884 135.432 41.6039 135.432 46.4223C135.432 51.2407 138.7 54.4036 142.662 54.4036C146.624 54.4036 149.84 51.2455 149.84 46.4223Z" fill="#22143D"/>
<path d="M191.966 32.8714H198.928L187.143 65.8156C185.966 69.0837 184.358 70.6914 180.123 70.6914H173.803V64.6385H179.162C180.128 64.6385 180.659 64.1552 180.985 63.3514L181.626 61.5857L170.592 32.8714H177.554L184.573 51.6761H185.645L191.966 32.8714Z" fill="#22143D"/>
<path fill-rule="evenodd" clip-rule="evenodd" d="M206.819 61.3178H200.177C200.34 65.2271 203.876 71.2274 213.034 71.2274C221.231 71.2274 226.054 66.4568 226.054 59.2794V32.8714H220.374L219.838 35.8189H219.571C217.91 33.7805 215.283 32.3355 211.695 32.3355C204.732 32.3355 199.373 37.6372 199.373 45.3505C199.373 53.0638 204.732 58.4229 211.695 58.4229C215.125 58.4229 217.805 57.0305 219.25 55.4754H219.518V59.2794C219.518 63.0308 216.944 65.495 213.034 65.495C208.852 65.495 207.087 63.0834 206.819 61.3178ZM212.714 38.1779C216.518 38.1779 219.518 41.1254 219.518 45.3553C219.518 49.6378 216.465 52.5853 212.714 52.5853C208.962 52.5853 205.962 49.5851 205.962 45.3553C205.962 41.1254 208.91 38.1779 212.714 38.1779Z" fill="#22143D"/>
<path fill-rule="evenodd" clip-rule="evenodd" d="M230.595 46.4223C230.595 38.2257 236.485 32.3355 244.361 32.3355C252.237 32.3355 258.127 38.2257 258.127 46.4223C258.127 54.6189 252.237 60.5091 244.361 60.5091C236.485 60.5091 230.595 54.5615 230.595 46.4223ZM251.539 46.4223C251.539 41.5991 248.323 38.3884 244.361 38.3884C240.399 38.3884 237.131 41.6039 237.131 46.4223C237.131 51.2407 240.399 54.4036 244.361 54.4036C248.323 54.4036 251.539 51.2455 251.539 46.4223Z" fill="#22143D"/>
<path d="M262.678 59.9732V59.978L262.673 59.9732H262.678Z" fill="#22143D"/>
<path d="M262.678 59.9732H269.209V44.5466C269.209 41.1732 271.889 38.5463 275.262 38.5463C278.636 38.5463 281.1 41.0632 281.1 44.5466V59.9732H287.636V43.6901C287.636 36.8333 283.138 32.3355 276.923 32.3355C272.855 32.3355 270.176 34.2112 269.104 35.4409H268.836L268.3 32.8714H262.678V59.9732Z" fill="#22143D"/>
<path d="M63.2944 62.2551L79.3622 52.9771C80.2139 52.4843 80.7402 51.5704 80.7402 50.5894V32.0335C80.7402 31.0526 80.2139 30.1387 79.3622 29.6458L63.2944 20.3678C62.4427 19.875 61.3852 19.8798 60.5383 20.3678L44.4705 29.6458C43.6188 30.1387 43.0924 31.0526 43.0924 32.0335V65.193L31.8239 71.6958L20.5554 65.193V52.1828L31.8239 45.6801L39.2549 49.9722V41.2445L33.202 37.7467C32.7857 37.5075 32.3072 37.3783 31.8239 37.3783C31.3406 37.3783 30.8621 37.5075 30.4458 37.7467L14.3781 47.0247C13.5263 47.5175 13 48.4314 13 49.4123V67.9683C13 68.9492 13.5263 69.8631 14.3781 70.356L30.4458 79.6339C31.2976 80.122 32.3502 80.122 33.202 79.6339L49.2698 70.356C50.1215 69.8631 50.6478 68.9492 50.6478 67.9683V34.8088L50.8488 34.6939L61.9115 28.306L73.18 34.8088V47.819L61.9115 54.3217L54.4901 50.0392V58.7669L60.5335 62.2551C61.3852 62.7432 62.4427 62.7432 63.2896 62.2551H63.2944Z" fill="url(#paint0_linear_1157_19503)"/>
<defs>
<linearGradient id="paint0_linear_1157_19503" x1="12.7799" y1="69.7866" x2="77.831" y2="32.0287" gradientUnits="userSpaceOnUse">
<stop stop-color="#A726C1"/>
<stop offset="0.88" stop-color="#803BDF"/>
<stop offset="1" stop-color="#7B3FE4"/>
</linearGradient>
</defs>
</svg>
