<svg width="360" height="100" viewBox="0 0 360 100" fill="none" xmlns="http://www.w3.org/2000/svg">
<path d="M68.5261 64.4221L59.2969 74.3179C59.0973 74.5329 58.8556 74.7044 58.5867 74.8218C58.3179 74.9392 58.0278 74.9999 57.7344 75.0002H13.9844C13.7758 75.0001 13.5717 74.9392 13.3971 74.8248C13.2226 74.7105 13.0851 74.5477 13.0017 74.3564C12.9182 74.1652 12.8923 73.9538 12.9272 73.7481C12.9621 73.5423 13.0562 73.3512 13.198 73.1981L22.4167 63.3023C22.6163 63.0874 22.8581 62.9158 23.1269 62.7984C23.3957 62.6811 23.6859 62.6203 23.9792 62.62H67.7292C67.9396 62.6157 68.1469 62.6737 68.3245 62.7868C68.5021 62.8999 68.6428 63.0631 68.7276 63.2557C68.8131 63.4483 68.8391 63.6619 68.8032 63.8694C68.7672 64.077 68.6709 64.2693 68.5261 64.4221ZM59.2969 44.4898C59.0966 44.2758 58.8546 44.105 58.586 43.9876C58.3173 43.8704 58.0275 43.8091 57.7344 43.8075H13.9844C13.7758 43.8076 13.5717 43.8686 13.3971 43.983C13.2226 44.0973 13.0851 44.26 13.0017 44.4513C12.9182 44.6425 12.8923 44.854 12.9272 45.0597C12.9621 45.2654 13.0562 45.4566 13.198 45.6096L22.4167 55.5107C22.6171 55.7246 22.859 55.8955 23.1276 56.0128C23.3963 56.1301 23.6861 56.1914 23.9792 56.1929H67.7292C67.9375 56.1918 68.1407 56.1301 68.3146 56.0154C68.4886 55.9007 68.625 55.7379 68.7079 55.5468C68.7907 55.3558 68.8162 55.1447 68.7808 54.9395C68.7459 54.7342 68.6521 54.5436 68.5105 54.3909L59.2969 44.4898ZM13.9844 37.3804H57.7344C58.0278 37.3801 58.3179 37.3194 58.5867 37.202C58.8556 37.0846 59.0973 36.9131 59.2969 36.6981L68.5261 26.8023C68.6709 26.6495 68.7672 26.4572 68.8032 26.2496C68.8391 26.0421 68.8131 25.8285 68.7276 25.6359C68.6428 25.4433 68.5021 25.2801 68.3245 25.167C68.1469 25.0539 67.9396 24.9959 67.7292 25.0002H23.9792C23.6859 25.0005 23.3957 25.0613 23.1269 25.1787C22.8581 25.2961 22.6163 25.4676 22.4167 25.6825L13.198 35.5783C13.0562 35.7314 12.9621 35.9225 12.9272 36.1283C12.8923 36.334 12.9182 36.5454 13.0017 36.7367C13.0851 36.9279 13.2226 37.0907 13.3971 37.205C13.5717 37.3194 13.7758 37.3803 13.9844 37.3804Z" fill="url(#paint0_linear_1157_19492)"/>
<path fill-rule="evenodd" clip-rule="evenodd" d="M249.5 30.7291H226.583C225.573 30.7236 224.572 30.9172 223.636 31.2987C222.701 31.6802 221.849 32.2423 221.131 32.9527C220.413 33.6632 219.842 34.5082 219.45 35.4394C219.059 36.3706 218.854 37.3699 218.849 38.3801V69.2708H226.661V56.6093H249.474V69.2708H257.286V38.3801C257.281 37.3655 257.075 36.3619 256.68 35.4273C256.285 34.4926 255.709 33.6453 254.985 32.9341C254.262 32.223 253.404 31.6621 252.463 31.2836C251.521 30.9052 250.514 30.7167 249.5 30.7291ZM249.442 48.901H226.63V38.4374H249.442V48.901Z" fill="#000008"/>
<path fill-rule="evenodd" clip-rule="evenodd" d="M143.713 30.729H167.208C168.218 30.7235 169.219 30.9171 170.155 31.2986C171.09 31.6802 171.942 32.2422 172.66 32.9527C173.378 33.6631 173.949 34.5081 174.341 35.4393C174.732 36.3706 174.937 37.3698 174.942 38.3801V61.6196C174.937 62.6298 174.732 63.6291 174.341 64.5604C173.949 65.4916 173.378 66.3366 172.66 67.047C171.942 67.7575 171.09 68.3195 170.155 68.7011C169.219 69.0826 168.218 69.2761 167.208 69.2707H143.713C142.701 69.2789 141.698 69.0874 140.76 68.7071C139.822 68.3268 138.968 67.7652 138.248 67.0544C137.527 66.3437 136.954 65.4978 136.562 64.5652C136.168 63.6326 135.963 62.6316 135.958 61.6196V38.3801C135.963 37.3681 136.168 36.3671 136.562 35.4345C136.954 34.5019 137.527 33.656 138.248 32.9453C138.968 32.2345 139.822 31.6729 140.76 31.2926C141.698 30.9123 142.701 30.7208 143.713 30.729ZM143.771 61.5623H167.151L167.14 38.4373H143.771V61.5623Z" fill="#000008"/>
<path d="M98.458 46.1455H121.864C122.875 46.1401 123.878 46.334 124.814 46.7162C125.75 47.0984 126.601 47.6613 127.32 48.3729C128.038 49.0844 128.609 49.9306 129 50.8631C129.391 51.7955 129.594 52.7959 129.599 53.807V61.6195C129.593 62.6297 129.389 63.629 128.997 64.5602C128.605 65.4915 128.034 66.3364 127.316 67.0469C126.598 67.7574 125.747 68.3194 124.811 68.701C123.876 69.0825 122.875 69.2761 121.864 69.2705H91.2028V61.5622H121.817V53.8539H98.3799C97.3689 53.8594 96.3663 53.6655 95.4304 53.2833C94.4945 52.9011 93.6429 52.3381 92.9242 51.6265C92.2059 50.915 91.6351 50.0688 91.2439 49.1363C90.8528 48.2039 90.6497 47.2035 90.6455 46.1924V38.3799C90.6507 37.3697 90.8554 36.3704 91.2471 35.4392C91.6387 34.508 92.2101 33.663 92.9283 32.9525C93.646 32.242 94.4976 31.68 95.433 31.2985C96.3684 30.9169 97.3695 30.7234 98.3799 30.7289H127.948V38.4372H98.458V46.1455Z" fill="#000008"/>
<path fill-rule="evenodd" clip-rule="evenodd" d="M317.807 30.7289H340.723C341.734 30.7234 342.735 30.9169 343.67 31.2985C344.606 31.68 345.457 32.242 346.175 32.9525C346.893 33.663 347.464 34.508 347.856 35.4392C348.248 36.3704 348.452 37.3697 348.458 38.3799V69.2705H340.645V56.6091H317.885V69.2705H310.072V38.3799C310.077 37.3697 310.282 36.3704 310.674 35.4392C311.066 34.508 311.637 33.663 312.355 32.9525C313.073 32.242 313.924 31.68 314.86 31.2985C315.795 30.9169 316.796 30.7234 317.807 30.7289ZM317.833 48.9007H340.645V38.4372H317.833V48.9007Z" fill="#000008"/>
<path d="M295.333 61.5622H292.208L281.036 33.958C280.653 33.0056 279.994 32.1895 279.144 31.6141C278.294 31.0388 277.292 30.7305 276.265 30.7288H269.333C268.659 30.7254 267.991 30.8547 267.368 31.1093C266.744 31.364 266.177 31.739 265.698 32.213C265.219 32.687 264.838 33.2506 264.577 33.8717C264.316 34.4928 264.18 35.1593 264.177 35.833V69.2705H271.989V38.4372H275.114L286.281 66.0413C286.67 66.9918 287.334 67.8047 288.188 68.3762C289.041 68.9477 290.046 69.2517 291.073 69.2497H298.005C298.679 69.2531 299.347 69.1238 299.97 68.8691C300.594 68.6145 301.161 68.2394 301.64 67.7655C302.119 67.2915 302.5 66.7279 302.761 66.1068C303.022 65.4856 303.158 64.8192 303.161 64.1455V30.7288H295.333V61.5622Z" fill="#000008"/>
<path d="M181.844 30.729H189.656V61.5623H213.042V69.2707H189.604C188.592 69.2796 187.587 69.0886 186.649 68.7086C185.711 68.3286 184.856 67.7671 184.135 67.0563C183.415 66.3455 182.841 65.4994 182.448 64.5664C182.055 63.6335 181.849 62.6321 181.844 61.6196V30.729Z" fill="#000008"/>
<defs>
<linearGradient id="paint0_linear_1157_19492" x1="17.6313" y1="76.1919" x2="63.5099" y2="24.4723" gradientUnits="userSpaceOnUse">
<stop offset="0.08" stop-color="#9945FF"/>
<stop offset="0.3" stop-color="#8752F3"/>
<stop offset="0.5" stop-color="#5497D5"/>
<stop offset="0.6" stop-color="#43B4CA"/>
<stop offset="0.72" stop-color="#28E0B9"/>
<stop offset="0.97" stop-color="#19FB9B"/>
</linearGradient>
</defs>
</svg>
