<svg width="1465" height="594" viewBox="0 0 1465 594" fill="none" xmlns="http://www.w3.org/2000/svg">
<g clip-path="url(#clip0_2838_357)">
<path d="M500.538 513.279C381.087 625.692 193.125 619.986 80.7122 500.535C-31.7002 381.084 -25.9943 193.122 93.4566 80.7093C212.908 -31.7031 400.87 -25.9973 513.282 93.4537C625.695 212.905 619.989 400.867 500.538 513.279Z" fill="#222B38"/>
<path d="M5.30499 240.982C96.5415 229.222 191.94 259.88 259.804 331.993C327.667 404.104 352.482 501.184 335.212 591.537C243.975 603.297 148.576 572.64 80.7122 500.527C12.8499 428.415 -11.9651 331.335 5.30499 240.982Z" fill="#FFD60A"/>
<path d="M370.355 135.945L381.029 174.784C385.285 190.274 397.41 202.361 412.913 206.569L451.786 217.121L412.946 227.794C397.457 232.051 385.37 244.176 381.162 259.679L370.61 298.551L359.936 259.712C355.679 244.222 343.554 232.136 328.052 227.927L289.179 217.375L328.018 206.702C343.508 202.445 355.595 190.32 359.803 174.817L370.355 135.945Z" fill="white"/>
</g>
<path d="M1095.03 249.463C1095.03 251.553 1096.72 253.247 1098.81 253.247H1145.31C1147.4 253.247 1149.09 254.941 1149.09 257.03V261.465C1149.09 263.555 1147.4 265.249 1145.31 265.249H1085.52C1083.43 265.249 1081.74 263.555 1081.74 261.465V175.357C1081.74 173.268 1083.43 171.574 1085.52 171.574H1143.38C1145.47 171.574 1147.16 173.268 1147.16 175.357V179.792C1147.16 181.882 1145.47 183.576 1143.38 183.576H1098.81C1096.72 183.576 1095.03 185.27 1095.03 187.359L1095.03 204.198C1095.03 206.288 1096.72 207.982 1098.81 207.982H1137.73C1138.77 207.982 1139.62 208.829 1139.62 209.873V214.18C1139.62 215.225 1138.77 216.072 1137.73 216.072H1098.81C1096.72 216.072 1095.03 217.766 1095.03 219.855L1095.03 249.463Z" fill="white"/>
<path fill-rule="evenodd" clip-rule="evenodd" d="M845.253 262.533L845.269 262.539L845.285 262.545C851.34 264.86 857.863 266.009 864.838 266.009C871.812 266.009 878.296 264.86 884.271 262.542L884.293 262.533C890.244 260.135 895.42 256.794 899.8 252.505C904.265 248.216 907.705 243.167 910.113 237.373C912.617 231.555 913.858 225.223 913.858 218.401C913.858 211.578 912.617 205.247 910.113 199.428C907.705 193.634 904.265 188.585 899.8 184.296C895.417 180.005 890.237 176.705 884.282 174.392C878.304 171.985 871.816 170.792 864.838 170.792C857.777 170.792 851.245 171.984 845.265 174.392C839.301 176.708 834.077 180.055 829.611 184.432C825.235 188.719 821.801 193.762 819.31 199.545L819.304 199.558C816.885 205.294 815.688 211.583 815.688 218.401C815.688 225.218 816.885 231.546 819.3 237.361L819.307 237.378L819.314 237.394C821.805 243.087 825.235 248.121 829.598 252.484L829.612 252.498L829.625 252.511C834.088 256.795 839.303 260.135 845.253 262.533ZM897.891 204.358L897.896 204.37C899.67 208.563 900.572 213.231 900.572 218.401C900.572 223.567 899.671 228.281 897.894 232.566C896.106 236.79 893.59 240.523 890.339 243.774C887.19 246.922 883.428 249.396 879.028 251.19C874.737 252.888 870.014 253.75 864.838 253.75C859.664 253.75 854.895 252.889 850.513 251.187C846.119 249.395 842.314 246.923 839.079 243.773C835.918 240.526 833.398 236.75 831.521 232.429C829.744 228.143 828.846 223.474 828.846 218.401C828.846 213.234 829.747 208.569 831.519 204.378C833.397 200.051 835.918 196.317 839.079 193.156C842.314 189.922 846.114 187.453 850.498 185.748L850.513 185.742L850.527 185.737C854.905 183.953 859.669 183.051 864.838 183.051C870.007 183.051 874.723 183.953 879.009 185.732L879.028 185.74L879.048 185.748C883.429 187.452 887.179 189.915 890.322 193.139L890.339 193.156L890.356 193.173C893.592 196.328 896.103 200.05 897.891 204.358Z" fill="white"/>
<path d="M739.093 185.468V261.465C739.093 263.555 740.787 265.249 742.877 265.249H748.596C750.686 265.249 752.38 263.555 752.38 261.465V185.468C752.38 184.423 753.227 183.576 754.271 183.576H780.187C782.276 183.576 783.97 181.882 783.97 179.792V175.357C783.97 173.268 782.276 171.574 780.187 171.574H711.286C709.197 171.574 707.503 173.268 707.503 175.357V179.792C707.503 181.882 709.197 183.576 711.286 183.576H737.202C738.246 183.576 739.093 184.423 739.093 185.468Z" fill="white"/>
<path d="M1034.32 177.968C1036.62 175.56 1034.91 171.574 1031.58 171.574H1025.88C1024.91 171.574 1023.97 171.951 1023.27 172.624L977.275 209.638C976.037 210.634 974.197 209.753 974.197 208.165V175.357C974.197 173.268 972.504 171.574 970.414 171.574H964.695C962.605 171.574 960.911 173.268 960.911 175.357V261.465C960.911 263.555 962.605 265.249 964.695 265.249H970.414C972.504 265.249 974.197 263.555 974.197 261.465V229.501C974.197 228.942 974.444 228.412 974.872 228.053L987.264 217.032C988.046 216.375 989.209 216.457 989.89 217.217L1031.03 264.056C1031.75 264.874 1032.79 265.342 1033.87 265.342H1034.62C1037.84 265.342 1039.59 261.575 1037.51 259.116L1037.49 259.098L998.004 214.211C996.612 212.629 996.781 210.215 998.379 208.842L1034.32 177.968Z" fill="white"/>
<path d="M1197.17 175.357V261.465C1197.17 263.555 1198.87 265.249 1200.96 265.249H1206.68C1208.77 265.249 1210.46 263.555 1210.46 261.465V201.76C1210.46 199.971 1212.72 199.182 1213.83 200.58L1264.31 263.826C1265.03 264.725 1266.12 265.249 1267.27 265.249H1268.52C1270.6 265.249 1272.3 263.555 1272.3 261.465V175.357C1272.3 173.268 1270.6 171.574 1268.52 171.574H1266.71C1264.62 171.574 1262.92 173.268 1262.92 175.357V235.081C1262.92 236.869 1260.67 237.659 1259.56 236.263L1208.95 172.994C1208.23 172.096 1207.14 171.574 1205.99 171.574H1200.96C1198.87 171.574 1197.17 173.268 1197.17 175.357Z" fill="white"/>
<path d="M1413.38 419.677L1413.4 419.682L1413.41 419.688C1419.78 421.899 1426.41 423.003 1433.3 423.003C1440.02 423.003 1442.86 422.232 1449.18 419.493L1449.19 419.487C1454.4 417.063 1458.39 413.859 1461.02 409.815L1461.03 409.799C1463.62 405.735 1464.92 401.318 1464.92 396.583C1464.92 391.616 1463.84 387.395 1461.5 384.079C1459.35 380.902 1456.46 378.393 1452.88 376.55C1449.49 374.683 1445.77 373.18 1441.72 372.035C1437.84 370.914 1433.92 369.88 1429.95 368.932C1426.08 368.005 1422.51 366.955 1419.24 365.783C1416.23 364.671 1413.84 363.151 1412.01 361.258C1410.44 359.537 1409.57 357.208 1409.57 354.077C1409.57 351.351 1410.29 348.989 1411.68 346.927C1413.14 344.816 1415.42 343.05 1418.68 341.699C1421.89 340.37 1424.18 339.66 1429.42 339.66C1433.25 339.66 1437.23 340.231 1441.37 341.388L1441.37 341.391C1444.85 342.346 1448.16 343.756 1451.3 345.625C1453.25 346.783 1455.9 346.061 1456.84 343.852L1458.55 339.797C1459.25 338.164 1458.72 336.187 1457.13 335.19C1453.64 333.003 1449.62 331.292 1445.09 330.042C1439.96 328.54 1434.78 327.787 1429.55 327.787C1421.76 327.787 1417.11 328.964 1411.89 331.43C1406.75 333.776 1402.81 336.99 1400.18 341.119L1400.17 341.129C1397.67 345.119 1396.42 349.536 1396.42 354.334C1396.42 359.376 1397.45 363.666 1399.68 367.059L1399.7 367.085L1399.72 367.111C1401.94 370.266 1404.82 372.809 1408.31 374.739L1408.33 374.749C1411.8 376.617 1415.56 378.122 1419.62 379.27L1419.64 379.275L1419.66 379.28C1423.61 380.31 1427.56 381.298 1431.51 382.243C1435.38 383.167 1438.89 384.255 1442.05 385.501L1442.07 385.509L1442.09 385.517C1445.11 386.631 1447.45 388.15 1449.18 390.031L1449.19 390.046L1449.21 390.06C1450.86 391.785 1451.76 394.108 1451.76 397.226C1451.76 399.737 1451.03 402.007 1449.55 404.088L1449.53 404.106L1449.52 404.125C1448.17 406.121 1445.91 407.847 1442.55 409.208C1437.81 411.129 1433.3 411.129 1433.3 411.129C1427.62 411.129 1422.2 410.144 1417.04 408.178C1412.88 406.499 1409.46 404.547 1406.74 402.341C1404.91 400.853 1401.96 401.224 1400.78 403.536L1398.84 407.359C1398.11 408.783 1398.34 410.597 1399.6 411.761C1403.09 414.977 1407.71 417.6 1413.38 419.677Z" fill="white"/>
<path d="M1304.61 419.527L1304.63 419.536C1310.61 421.854 1317.09 423.003 1324.07 423.003C1330.88 423.003 1337.27 421.852 1343.24 419.536C1348.63 417.447 1353.28 414.444 1357.18 410.522C1358.66 409.027 1358.54 406.682 1357.14 405.276L1353.73 401.864C1352.22 400.359 1349.85 400.429 1348.38 401.801C1345.23 404.735 1341.82 406.893 1338.16 408.302C1333.94 409.924 1329.37 410.744 1324.45 410.744C1319.28 410.744 1314.51 409.883 1310.13 408.181C1305.73 406.388 1301.92 403.913 1298.69 400.759C1295.44 397.508 1292.88 393.773 1291 389.546C1289.23 385.265 1288.33 380.556 1288.33 375.395C1288.33 370.228 1289.23 365.563 1291 361.372C1292.88 357.056 1295.44 353.326 1298.68 350.167L1298.69 350.15C1301.93 346.916 1305.73 344.447 1310.11 342.742L1310.13 342.737L1310.14 342.731C1314.52 340.947 1319.28 340.046 1324.45 340.046C1329.37 340.046 1333.94 340.865 1338.16 342.488L1338.17 342.494L1338.19 342.499C1341.84 343.833 1345.23 345.944 1348.38 348.863C1349.85 350.231 1352.22 350.303 1353.73 348.797L1357.14 345.385C1358.54 343.979 1358.66 341.634 1357.17 340.138C1353.28 336.223 1348.62 333.261 1343.23 331.249C1337.27 328.937 1330.92 327.787 1324.2 327.787C1317.22 327.787 1310.73 328.979 1304.75 331.386C1298.8 333.699 1293.58 336.998 1289.11 341.284L1289.1 341.297C1284.72 345.584 1281.29 350.628 1278.8 356.411L1278.79 356.434C1276.37 362.249 1275.17 368.577 1275.17 375.395C1275.17 382.212 1276.37 388.54 1278.79 394.356L1278.8 394.378C1281.29 400.162 1284.72 405.205 1289.1 409.492C1293.48 413.784 1298.66 417.128 1304.61 419.527Z" fill="white"/>
<path d="M1214.86 332.351V418.46C1214.86 420.549 1216.55 422.243 1218.64 422.243H1224.36C1226.45 422.243 1228.15 420.549 1228.15 418.46V332.351C1228.15 330.262 1226.45 328.568 1224.36 328.568H1218.64C1216.55 328.568 1214.86 330.262 1214.86 332.351Z" fill="white"/>
<path d="M1006.7 342.462V418.46C1006.7 420.549 1008.4 422.243 1010.49 422.243H1016.21C1018.3 422.243 1019.99 420.549 1019.99 418.46V342.462C1019.99 341.417 1020.84 340.57 1021.88 340.57H1047.8C1049.89 340.57 1051.58 338.876 1051.58 336.787V332.351C1051.58 330.262 1049.89 328.568 1047.8 328.568H978.896C976.806 328.568 975.112 330.262 975.112 332.351V336.787C975.112 338.876 976.806 340.57 978.896 340.57H1004.81C1005.86 340.57 1006.7 341.417 1006.7 342.462Z" fill="white"/>
<path d="M882.951 407.422C882.951 409.511 884.645 411.205 886.735 411.205H933.231C935.321 411.205 937.015 412.899 937.015 414.989V419.424C937.015 421.513 935.321 423.207 933.231 423.207H873.448C871.359 423.207 869.665 421.513 869.665 419.424V333.316C869.665 331.226 871.359 329.532 873.448 329.532H931.305C933.395 329.532 935.088 331.226 935.088 333.316V337.751C935.088 339.84 933.395 341.534 931.305 341.534H886.735C884.645 341.534 882.951 343.228 882.951 345.318L882.951 362.157C882.951 364.246 884.645 365.94 886.735 365.94H925.655C926.7 365.94 927.547 366.787 927.547 367.832V372.139C927.547 373.184 926.7 374.03 925.655 374.03H886.735C884.645 374.03 882.951 375.724 882.951 377.814L882.951 407.422Z" fill="white"/>
<path d="M809.998 328.568C808.785 328.568 807.646 329.149 806.934 330.131L771.887 378.493C771.134 379.533 769.586 379.536 768.828 378.5L733.434 330.117C732.721 329.144 731.587 328.568 730.38 328.568H725.399C723.309 328.568 721.615 330.262 721.615 332.351V418.46C721.615 420.549 723.309 422.243 725.399 422.243H730.733C732.822 422.243 734.516 420.549 734.516 418.46V359.866C734.516 358.047 736.833 357.276 737.922 358.733L765.857 396.056C766.572 397.01 767.694 397.572 768.886 397.572H771.487C772.679 397.572 773.801 397.01 774.516 396.056L802.45 358.733C803.54 357.276 805.857 358.047 805.857 359.866V418.46C805.857 420.549 807.551 422.243 809.64 422.243H814.974C817.064 422.243 818.758 420.549 818.758 418.46V332.351C818.758 330.262 817.064 328.568 814.974 328.568H809.998Z" fill="white"/>
<path fill-rule="evenodd" clip-rule="evenodd" d="M1148.48 389.97L1148.46 389.98C1146.96 390.637 1146.35 392.51 1147.3 393.845L1164.06 417.364C1164.96 418.616 1164.06 420.353 1162.52 420.353L1157.3 420.353C1156.06 420.353 1154.89 419.743 1154.19 418.72L1137.87 395.103C1137.06 393.933 1135.66 393.325 1134.24 393.457C1132.26 393.643 1130.19 393.734 1128.06 393.734H1109.23C1107.11 393.734 1105.41 395.465 1105.44 397.578L1105.77 418.399C1105.81 420.512 1104.11 422.243 1101.99 422.243H1096.3C1094.21 422.243 1092.52 420.549 1092.52 418.46V332.351C1092.52 330.262 1094.21 328.568 1096.3 328.568H1128.06C1135.87 328.568 1142.7 329.84 1148.47 332.456C1154.25 334.986 1158.75 338.726 1161.88 343.689C1165.11 348.588 1166.68 354.484 1166.68 361.28C1166.68 367.922 1165.1 373.77 1161.88 378.742C1158.75 383.62 1154.26 387.356 1148.48 389.97ZM1147 376.393C1151.21 372.873 1153.39 367.922 1153.39 361.278C1153.39 354.54 1151.2 349.55 1147 346.035L1146.99 346.024C1142.84 342.489 1136.55 340.568 1127.8 340.568H1109.13C1107.04 340.568 1105.35 342.262 1105.35 344.352V378.076C1105.35 380.165 1107.04 381.859 1109.13 381.859H1127.8C1136.55 381.859 1142.84 379.938 1146.99 376.404L1147 376.393Z" fill="white"/>
<defs>
<clipPath id="clip0_2838_357">
<rect width="594" height="594" fill="white"/>
</clipPath>
</defs>
</svg>
