<svg width="360" height="100" viewBox="0 0 360 100" fill="none" xmlns="http://www.w3.org/2000/svg">
<path fill-rule="evenodd" clip-rule="evenodd" d="M202.495 50.9404C202.495 48.1254 203.06 45.6928 204.182 43.6301C205.304 41.5674 206.809 39.8809 208.871 38.7586C211.122 37.4483 213.561 36.884 216.37 36.884C219.179 36.884 221.618 37.4483 223.68 38.5705C225.743 39.6928 227.241 41.3856 228.37 43.4483C229.492 45.511 230.056 47.9498 230.056 50.7586C230.056 53.5674 229.492 56.0063 228.37 58.0689C227.248 60.1316 225.743 61.8182 223.68 62.9467C221.618 64.069 219.179 64.6332 216.37 64.6332C213.555 64.6332 211.122 64.069 209.06 62.9467C206.997 61.8244 205.498 60.1316 204.37 58.0689C203.053 56.1881 202.495 53.5611 202.495 50.9404ZM209.994 50.9404C209.994 52.627 210.182 54.1254 210.746 55.2539C211.122 56.3762 211.868 57.3166 212.809 58.0689C213.743 58.6332 214.872 59.0094 216.37 59.0094C218.433 59.0094 220.119 58.257 221.06 56.9467C222.182 55.4483 222.558 53.5737 222.558 50.9467C222.558 49.2602 222.37 47.7617 221.806 46.6332C221.429 45.511 220.677 44.5705 219.743 43.8182C218.809 43.2539 217.68 42.884 216.182 42.884C214.119 42.884 212.433 43.6364 211.492 44.9467C210.558 46.2508 209.994 48.3135 209.994 50.9404Z" fill="#000008"/>
<path d="M186.558 64.4389V43.0596H178.307V37.2477H201.931V43.0596H193.68V64.4389H186.558Z" fill="#000008"/>
<path d="M234.364 37.2477V64.4389H240.928V48.7723L253.492 64.4389H258.74V37.2477H252.175V52.9063L239.618 37.2477H234.364Z" fill="#000008"/>
<path d="M132 80C148.502 80 162 66.5016 162 50C161.994 33.4984 148.495 20 132 20C115.498 20 102 33.4984 102 50C102 66.5016 115.498 80 132 80Z" fill="#0088CC"/>
<path fill-rule="evenodd" clip-rule="evenodd" d="M123.561 39.8746H140.433C140.997 39.8746 141.555 39.8746 142.307 40.2508C143.06 40.627 143.429 41.1912 143.806 41.5611C143.806 41.5611 143.806 41.5611 143.806 41.7492C144.182 42.3135 144.37 42.8715 144.37 43.6238C144.37 44.1881 144.182 44.9342 143.806 45.4984L133.122 63.6865C132.934 64.0627 132.37 64.2508 132 64.2508C131.624 64.2508 131.066 64.0627 130.878 63.6865L120.376 45.4984C120.188 45.1223 119.812 44.5643 119.624 43.6238C119.624 42.8715 119.812 42.1254 120 41.5611C120.376 40.9969 120.934 40.4389 121.498 40.0627C122.439 39.8746 123.185 39.8746 123.561 39.8746ZM130.683 42.5016H123.561C123.185 42.5016 122.997 42.5016 122.809 42.5016C122.621 42.5016 122.433 42.6897 122.433 42.8777C122.244 43.0658 122.244 43.2539 122.244 43.442C122.244 43.6301 122.244 43.6301 122.621 44.1944L130.683 58.2571V42.5016ZM133.31 58.2508L141.561 44.1881C141.561 44 141.749 43.8119 141.749 43.4357C141.749 43.2477 141.749 43.0596 141.561 42.8715C141.373 42.6834 141.373 42.6834 141.373 42.6834C141.373 42.6834 141.373 42.6834 141.185 42.6834C140.997 42.6834 140.809 42.4953 140.433 42.4953H133.31V58.2508Z" fill="white"/>
</svg>
